<?xml version="1.0" encoding="UTF-8" standalone="no"?>
<!-- Created with Inkscape (http://www.inkscape.org/) -->

<svg
   xmlns:dc="http://purl.org/dc/elements/1.1/"
   xmlns:cc="http://creativecommons.org/ns#"
   xmlns:rdf="http://www.w3.org/1999/02/22-rdf-syntax-ns#"
   xmlns:svg="http://www.w3.org/2000/svg"
   xmlns="http://www.w3.org/2000/svg"
   xmlns:sodipodi="http://sodipodi.sourceforge.net/DTD/sodipodi-0.dtd"
   xmlns:inkscape="http://www.inkscape.org/namespaces/inkscape"
   width="744.09448819"
   height="1052.3622047"
   id="svg2"
   version="1.1"
   inkscape:version="0.47 r22583"
   sodipodi:docname="hamsters.svg"
   inkscape:export-filename="/home/angie/hamsters.png"
   inkscape:export-xdpi="90"
   inkscape:export-ydpi="90">
  <defs
     id="defs4">
    <inkscape:perspective
       sodipodi:type="inkscape:persp3d"
       inkscape:vp_x="0 : 526.18109 : 1"
       inkscape:vp_y="0 : 1000 : 0"
       inkscape:vp_z="744.09448 : 526.18109 : 1"
       inkscape:persp3d-origin="372.04724 : 350.78739 : 1"
       id="perspective10" />
  </defs>
  <sodipodi:namedview
     id="base"
     pagecolor="#ffffff"
     bordercolor="#666666"
     borderopacity="1.0"
     inkscape:pageopacity="0.0"
     inkscape:pageshadow="2"
     inkscape:zoom="1"
     inkscape:cx="396.57124"
     inkscape:cy="292.49573"
     inkscape:document-units="px"
     inkscape:current-layer="layer1"
     showgrid="false"
     inkscape:window-width="1920"
     inkscape:window-height="1126"
     inkscape:window-x="0"
     inkscape:window-y="25"
     inkscape:window-maximized="1" />
  <metadata
     id="metadata7">
    <rdf:RDF>
      <cc:Work
         rdf:about="">
        <dc:format>image/svg+xml</dc:format>
        <dc:type
           rdf:resource="http://purl.org/dc/dcmitype/StillImage" />
        <dc:title></dc:title>
      </cc:Work>
    </rdf:RDF>
  </metadata>
  <g
     inkscape:label="Layer 1"
     inkscape:groupmode="layer"
     id="layer1">
    <path
       sodipodi:type="arc"
       style="fill:#ff9d2a;fill-opacity:1;stroke:#000000;stroke-width:1.00600003999999998;stroke-linecap:round;stroke-linejoin:round;stroke-miterlimit:4;stroke-opacity:1;stroke-dasharray:none"
       id="path2816"
       sodipodi:cx="330"
       sodipodi:cy="213.36218"
       sodipodi:rx="178"
       sodipodi:ry="111"
       d="m 508,213.36218 a 178,111 0 1 1 -356,0 178,111 0 1 1 356,0 z"
       transform="matrix(0.68484603,0,0,0.70858202,115.2508,39.677577)" />
    <g
       id="g3660">
      <g
         transform="translate(4,-14.5)"
         id="g3644">
        <path
           style="fill:none;stroke:#000000;stroke-width:1px;stroke-linecap:butt;stroke-linejoin:miter;stroke-opacity:1"
           d="m 323.5,184.86218 c -66,-20 -56,41.5 -56,41.5"
           id="path3628"
           sodipodi:nodetypes="cc" />
        <path
           style="fill:none;stroke:#000000;stroke-width:1px;stroke-linecap:butt;stroke-linejoin:miter;stroke-opacity:1"
           d="m 313,182.36218 c -7.5,-80 -33.5,4 -33.5,4 l 1.5,-1.5"
           id="path3634"
           sodipodi:nodetypes="ccc" />
      </g>
      <g
         transform="translate(-5,-15)"
         id="g3640">
        <path
           sodipodi:nodetypes="ccc"
           id="path3636"
           d="m 367,183.86218 c 7.5,-80 33.5,4 33.5,4 l -1.5,-1.5"
           style="fill:none;stroke:#000000;stroke-width:1px;stroke-linecap:butt;stroke-linejoin:miter;stroke-opacity:1" />
        <path
           sodipodi:nodetypes="cc"
           id="path3638"
           d="m 356.45917,186.36218 c 66,-20 56,41.5 56,41.5"
           style="fill:none;stroke:#000000;stroke-width:1px;stroke-linecap:butt;stroke-linejoin:miter;stroke-opacity:1" />
      </g>
      <path
         transform="matrix(1.0822962,0,0,1.1326489,-30.063019,-29.442712)"
         style="fill:#ff7f2a;fill-opacity:1;stroke:#000000;stroke-width:1;stroke-linecap:round;stroke-linejoin:round;stroke-miterlimit:4;stroke-opacity:1"
         d="m 352.5,178.61218 c 0,2.8995 -5.14873,14.07886 -11.5,14.07886 -6.35127,0 -11.5,-11.17936 -11.5,-14.07886 0,-2.89949 5.14873,-5.25 11.5,-5.25 6.35127,0 11.5,2.35051 11.5,5.25 z"
         id="path3648"
         sodipodi:nodetypes="csssc" />
    </g>
    <g
       id="g3656"
       transform="matrix(0.82245197,0,0,0.44965632,61.716848,122.69299)"
       style="stroke-width:1.64438829;stroke-miterlimit:4;stroke-dasharray:none">
      <path
         id="path3650"
         d="m 338,198.86218 c -9,31.5 -35,14.5 -35,14.5 l 0,0"
         style="fill:none;stroke:#000000;stroke-width:1.64438829;stroke-linecap:butt;stroke-linejoin:miter;stroke-opacity:1;stroke-miterlimit:4;stroke-dasharray:none" />
      <path
         style="fill:none;stroke:#000000;stroke-width:1.64438829;stroke-linecap:butt;stroke-linejoin:miter;stroke-opacity:1;stroke-miterlimit:4;stroke-dasharray:none"
         d="m 337.5,198.86218 c 9,31.5 35,14.5 35,14.5 l 0,0"
         id="path3654" />
    </g>
    <path
       style="fill:#000000;fill-opacity:1;stroke:#000000;stroke-width:0.25;stroke-linecap:round;stroke-linejoin:round;stroke-miterlimit:4;stroke-opacity:1;stroke-dasharray:none"
       d="m 285.08582,170.25146 c -0.27894,-0.27894 -0.0749,-0.99644 1.60188,-5.63201 6.19144,-17.117 12.10907,-27.67255 16.8336,-30.02688 1.73722,-0.86569 2.65096,-0.82554 3.95479,0.17377 2.68931,2.06122 4.7677,7.09918 6.47182,15.6875 1.01304,5.10545 2.49574,16.09456 2.21009,16.38021 -0.0543,0.0543 -1.06281,-0.0573 -2.2411,-0.24803 -10.33247,-1.67262 -19.72048,-0.71679 -26.51858,2.69994 -1.19985,0.60304 -2.24047,1.03752 -2.3125,0.9655 l 0,0 z"
       id="path3676" />
    <path
       style="fill:#000000;fill-opacity:1;stroke:#000000;stroke-width:0.25;stroke-linecap:round;stroke-linejoin:round;stroke-miterlimit:4;stroke-opacity:1;stroke-dasharray:none"
       d="m 391.88203,170.41985 c -7.01709,-3.53932 -16.29263,-4.5208 -26.78597,-2.83433 -1.22861,0.19746 -2.26732,0.32552 -2.30826,0.28458 -0.0952,-0.0952 0.77703,-7.48171 1.2891,-10.91626 2.27551,-15.26219 6.20226,-23.31568 10.60626,-21.7527 3.19363,1.13342 6.33704,5.17991 10.48923,13.5027 1.33766,2.68125 3.03542,6.3375 3.77281,8.125 2.29076,5.553 5.26391,13.91228 5.06904,14.25205 -0.13949,0.24319 -0.65845,0.0823 -2.13221,-0.66104 z"
       id="path3678" />
    <path
       style="fill:#000000;fill-opacity:1;stroke:#000000;stroke-width:0.25;stroke-linecap:round;stroke-linejoin:round;stroke-miterlimit:4;stroke-opacity:1;stroke-dasharray:none"
       d="m 407.35895,210.51634 c 0.3626,-3.98685 0.19106,-10.40116 -0.38472,-14.38529 -1.78769,-12.37004 -7.40597,-20.99335 -16.434,-25.22403 -4.7195,-2.21163 -9.00915,-3.04187 -15.71035,-3.04066 -6.46473,0.001 -12.5539,0.91013 -20.36886,3.04057 l -2.61886,0.71393 -0.0556,1.37354 c -0.14327,3.53971 -4.00127,10.81619 -7.28199,13.73437 -0.64609,0.57469 -1.88323,1.37982 -2.7492,1.78916 -1.32555,0.62659 -1.80325,0.72773 -3.02123,0.63963 -1.96056,-0.14182 -3.87293,-1.12475 -5.68918,-2.92418 -4.33295,-4.29282 -7.98225,-12.78763 -6.43959,-14.99008 0.22027,-0.31448 0.3609,-0.60333 0.3125,-0.64188 -0.0484,-0.0385 -1.38175,-0.41721 -2.963,-0.84148 -20.09211,-5.39094 -34.83953,-3.39938 -43.51687,5.87672 -6.04865,6.46603 -9.00087,15.75696 -8.95813,28.19218 0.009,2.75 0.0984,5.65094 0.19776,6.44653 0.15418,1.23512 0.1237,1.43569 -0.2086,1.37239 -0.54332,-0.10349 -0.70975,-1.83755 -0.73944,-7.7043 -0.0685,-13.54245 3.48152,-23.61607 10.65051,-30.22185 1.14307,-1.05328 1.93078,-1.98388 1.96764,-2.3246 0.079,-0.72993 3.42773,-10.12654 5.05816,-14.19317 5.19908,-12.96754 10.44694,-21.41073 14.59677,-23.48442 2.46031,-1.22943 4.07001,-0.94248 6.03085,1.07509 1.98558,2.043 3.69201,6.00948 5.13052,11.92553 1.14018,4.68911 2.46496,13.12233 2.93023,18.65304 l 0.17197,2.04423 1.90681,0.41227 c 1.04875,0.22675 3.34216,0.80246 5.09648,1.27934 l 3.18966,0.86707 0.82318,-0.62787 c 5.34739,-4.07865 18.23612,-3.60682 22.22987,0.81379 0.49632,0.54936 0.9502,0.95103 1.00863,0.89259 0.1626,-0.16259 6.06169,-1.75902 8.2465,-2.23169 1.06562,-0.23053 1.9375,-0.50963 1.9375,-0.62022 0,-0.61864 0.82444,-7.48347 1.25276,-10.43127 2.27669,-15.66884 5.90334,-23.81748 10.60024,-23.81748 2.28473,0 5.74258,2.90261 8.62305,7.23839 1.85509,2.79236 5.83224,10.70221 7.86223,15.63661 1.77122,4.30539 5.44804,14.52266 5.53289,15.375 0.0412,0.41333 0.98369,1.55868 2.78302,3.38184 5.22658,5.2958 8.035,11.43358 9.36323,20.46321 0.86118,5.85453 0.73972,16.65495 -0.18731,16.65495 -0.31992,0 -0.34578,-0.32129 -0.17604,-2.1875 l 0,0 z m -65.71638,-22.82339 c 2.17418,-0.9435 5.11074,-4.33428 7.08151,-8.17687 1.12916,-2.20163 2.2308,-5.46492 2.2308,-6.60813 0,-1.80801 -1.99905,-3.51505 -5.44075,-4.646 -1.75779,-0.57761 -2.33339,-0.63773 -6.30925,-0.65901 -3.53537,-0.0189 -4.68687,0.0645 -6,0.43457 -4.2702,1.20351 -6.49452,3.20501 -6.11399,5.50151 0.6009,3.62641 3.96686,9.86856 6.60819,12.25485 2.85927,2.58318 5.12104,3.12391 7.94349,1.89908 z m 52.56694,-16.36969 c 0.26115,-0.31467 0.0648,-1.08327 -1.13375,-4.4375 -5.25374,-14.70326 -10.16022,-24.5491 -14.55528,-29.2081 -1.67627,-1.77692 -3.63742,-2.97382 -4.87272,-2.97382 -4.66978,0 -8.24152,9.17161 -10.41736,26.75 -0.2638,2.13125 -0.55611,4.53625 -0.64956,5.34445 l -0.16992,1.46945 0.83448,-0.14823 c 0.45896,-0.0815 1.42763,-0.22323 2.15259,-0.3149 0.72496,-0.0917 1.38591,-0.27637 1.46877,-0.41045 0.0913,-0.14779 -0.13236,-0.18925 -0.56811,-0.10528 -2.13178,0.41078 -3.34377,0.45643 -3.34347,0.12592 7.5e-4,-0.8534 0.83285,-7.49124 1.40533,-11.21096 1.12025,-7.27879 2.47066,-12.26078 4.37082,-16.125 1.38505,-2.81668 1.75473,-3.32192 3.09719,-4.23294 1.59436,-1.08195 3.05066,-0.80216 5.2981,1.0179 3.48108,2.81912 8.92397,12.77765 13.50814,24.71504 2.12208,5.52602 3.34283,9.23057 3.07347,9.32695 -0.11828,0.0423 -1.37679,-0.42823 -2.7967,-1.04567 -2.92753,-1.27302 -5.37327,-2.00068 -8.45665,-2.51603 -2.63859,-0.441 -6.13183,-0.71134 -5.25,-0.40629 0.34375,0.11891 1.0833,0.22742 1.64344,0.24112 3.44782,0.0844 9.36666,1.67669 12.69417,3.41506 2.38988,1.24854 2.26452,1.21426 2.66702,0.72928 l 0,0 z m -106.8341,-1.7255 c 3.64516,-1.82896 7.46133,-2.88361 12.18139,-3.3665 1.35035,-0.13815 2.51733,-0.31334 2.59329,-0.3893 0.22244,-0.22244 -0.73306,-0.16257 -3.77981,0.23682 -3.866,0.50679 -7.29153,1.42846 -10.27114,2.76352 -1.3644,0.61135 -2.57378,1.11154 -2.6875,1.11154 -0.41507,0 -0.17261,-0.87482 1.5806,-5.70288 3.4508,-9.50298 7.62048,-18.55009 10.70505,-23.22718 2.78221,-4.21862 5.72196,-6.81202 7.72808,-6.81759 2.91753,-0.008 5.58871,4.48837 7.5729,12.74765 0.70667,2.94156 1.86554,9.06394 2.08213,11 0.3404,3.04289 0.90625,6.86365 1.03423,6.98352 0.35935,0.33658 -0.63472,-7.62869 -1.64765,-13.20238 -1.35921,-7.47906 -3.27919,-13.1203 -5.42131,-15.92876 -0.84674,-1.11013 -2.52362,-2.10238 -3.55298,-2.10238 -2.13711,0 -5.2027,2.56856 -7.91142,6.62871 -1.85557,2.78135 -5.80249,10.57677 -7.71939,15.24629 -0.79024,1.925 -2.33457,5.95808 -3.43184,8.96241 -1.5665,4.28903 -1.93264,5.5376 -1.7045,5.8125 0.15981,0.19255 0.3254,0.35009 0.36798,0.35009 0.0426,0 1.06943,-0.49774 2.28189,-1.10608 l 0,0 z m 81.57947,-2.39392 c 0,-0.29853 -0.68028,-0.29853 -1.375,0 -0.4011,0.17236 -0.31455,0.21834 0.4375,0.23243 0.51562,0.01 0.9375,-0.0949 0.9375,-0.23243 z m -52.5,-1 c 0,-0.55 -0.1125,-1 -0.25,-1 -0.1375,0 -0.25,0.33505 -0.25,0.74455 0,0.73765 -0.011,0.74348 -1.1875,0.62987 -0.65313,-0.0631 -1.91454,-0.22419 -2.80315,-0.35806 -1.42318,-0.21441 -2.0656,-0.1904 -1.73852,0.065 0.10516,0.0821 4.9811,0.82909 5.79167,0.88727 0.34898,0.025 0.4375,-0.17092 0.4375,-0.9686 z m 55.875,0.75 c 0.18021,-0.29159 -0.53386,-0.29588 -2.125,-0.0128 l -1.125,0.20018 1.54774,0.0313 c 0.85126,0.0172 1.61728,-0.0812 1.70226,-0.21872 z m 3.3191,-0.18172 c -0.51199,-0.0537 -1.41199,-0.0545 -2,-0.002 -0.58801,0.0528 -0.1691,0.0968 0.9309,0.0977 1.1,0.001 1.58109,-0.0423 1.0691,-0.096 l 0,1e-4 z m -66.6941,-0.83104 c -1.59115,-0.28312 -2.30522,-0.27883 -2.125,0.0128 0.085,0.1375 0.85099,0.23592 1.70225,0.21871 l 1.54775,-0.0313 -1.125,-0.20018 z m -3.4375,-0.17029 c -0.58438,-0.0526 -1.54063,-0.0526 -2.125,0 -0.58438,0.0526 -0.10625,0.0957 1.0625,0.0957 1.16875,0 1.64687,-0.0431 1.0625,-0.0957 z"
       id="path3680" />
    <path
       style="fill:#000000;fill-opacity:1;stroke:#000000;stroke-width:0.25;stroke-linecap:round;stroke-linejoin:round;stroke-miterlimit:4;stroke-opacity:1;stroke-dasharray:none"
       d="m 407.40291,207.09351 c 0.17058,-7.97562 -0.48995,-13.29676 -2.3406,-18.85557 -3.30303,-9.92136 -9.84774,-16.41176 -19.17423,-19.01512 -7.74191,-2.16104 -18.7493,-1.60569 -30.67889,1.54784 l -3.12069,0.82493 -0.27036,1.61663 c -0.73181,4.37599 -3.81238,10.2159 -6.95851,13.19138 -2.69242,2.54637 -5.4832,3.33836 -8.16838,2.31807 -2.88745,-1.09715 -6.09838,-4.61648 -8.31183,-9.11015 -1.9659,-3.99111 -2.4955,-6.49715 -1.80942,-8.56211 0.14015,-0.42185 0.0574,-0.55621 -0.40711,-0.66119 -0.32066,-0.0725 -2.14827,-0.53534 -4.06137,-1.02863 -1.91309,-0.49328 -5.23184,-1.20492 -7.375,-1.58141 -3.55303,-0.62416 -4.4588,-0.68518 -10.27164,-0.69193 -6.85493,-0.008 -8.20308,0.15604 -12.59369,1.53207 -13.89934,4.35607 -21.05468,17.85505 -20.3024,38.3017 0.0881,2.39493 0.22661,4.46185 0.30776,4.59316 0.0811,0.1313 -0.0627,0.19851 -0.31957,0.14935 -0.65182,-0.12474 -0.79485,-1.49949 -0.815,-7.83369 -0.0239,-7.52149 0.79062,-12.6958 2.8926,-18.375 1.63761,-4.42455 3.65665,-7.57155 7.21771,-11.25 2.1832,-2.25516 2.33393,-2.48221 2.98734,-4.5 3.73475,-11.5331 9.02085,-23.52197 13.06167,-29.6238 1.8741,-2.82999 4.70497,-5.80299 6.17853,-6.48874 5.65864,-2.63337 9.74253,3.86822 12.47637,19.86254 0.51431,3.00897 1.44716,10.13916 1.71642,13.11939 l 0.0673,0.74438 5.125,1.29641 c 5.00582,1.26626 5.13662,1.28565 5.625,0.83384 0.81186,-0.75107 3.65766,-1.97299 5.64851,-2.42534 2.75297,-0.6255 8.47298,-0.5556 11.0282,0.13478 2.52408,0.68197 4.42685,1.63251 5.68179,2.83837 l 1.01672,0.97695 3.18739,-0.8764 c 1.75306,-0.48201 4.00177,-1.05747 4.99713,-1.2788 0.99536,-0.22132 1.85638,-0.47804 1.91338,-0.57049 0.057,-0.0924 0.34644,-2.24934 0.64318,-4.79309 2.28467,-19.58499 6.10109,-29.5 11.35494,-29.5 1.57549,0 3.12175,0.90226 5.26311,3.07107 1.11537,1.12966 2.58232,2.89286 3.2599,3.91821 2.29152,3.46772 6.58748,12.18134 8.75632,17.76072 1.55281,3.99464 4.26422,11.55274 4.61881,12.875 0.28197,1.05146 0.73705,1.66695 2.8651,3.875 5.51657,5.72396 8.2612,11.87028 9.54496,21.375 0.71124,5.2658 0.53726,15.875 -0.26032,15.875 -0.24895,0 -0.2906,-1.19155 -0.19609,-5.61033 l 0,0 z m -65.9624,-19.40448 c 2.32216,-1.05344 4.79027,-3.75914 6.86591,-7.52682 1.04923,-1.90456 2.25901,-5.09373 2.51244,-6.62319 0.30358,-1.83205 -0.90422,-3.31563 -3.73898,-4.59271 -2.50205,-1.1272 -3.92799,-1.36609 -8.125,-1.36122 -4.30783,0.005 -5.98239,0.32033 -8.6786,1.63423 -2.09775,1.02226 -3.0714,2.21946 -3.0714,3.77659 0,3.01466 3.5064,9.81438 6.58121,12.76249 2.46887,2.36712 5.18313,3.05172 7.65442,1.93063 z m 52.88086,-16.47142 c 0.16283,-0.26347 -2.59482,-8.12834 -4.60683,-13.13877 -1.90488,-4.74363 -6.46694,-13.89012 -8.26529,-16.57112 -3.03254,-4.52091 -6.25143,-7.0927 -8.37801,-6.69375 -2.86815,0.53807 -5.37163,4.80997 -7.25341,12.37712 -0.76641,3.08194 -2.11295,10.21612 -2.11295,11.19474 0,0.97494 0.24476,-0.0726 0.86034,-3.68199 1.22226,-7.16668 2.82261,-12.51431 4.8211,-16.10991 4.08847,-7.35582 9.89527,-2.65708 17.67976,14.30609 2.16486,4.71743 6.35127,15.61274 6.7689,17.61632 0.11605,0.55678 -0.0779,0.54934 -1.6301,-0.0625 -1.7722,-0.69853 -1.86666,-0.60407 -0.25,0.25 1.44101,0.76129 2.12212,0.90916 2.36649,0.51377 z m -106.72146,-1.95206 c -0.05,-0.05 -0.51064,0.0843 -1.02354,0.29865 -1.16154,0.48532 -1.37149,0.48715 -1.37149,0.012 0,-0.85804 3.54325,-10.41565 5.69892,-15.37232 3.89371,-8.95309 6.65004,-13.74881 9.84396,-17.12744 2.61529,-2.76653 4.69341,-3.50586 6.47661,-2.30417 2.66134,1.79348 4.86627,7.04538 6.63617,15.80661 0.38888,1.925 0.74372,3.31596 0.78854,3.09101 0.11549,-0.5797 -1.09486,-6.3724 -1.95301,-9.34701 -1.37043,-4.75036 -2.7933,-7.68031 -4.46182,-9.18771 -2.37511,-2.14577 -4.21694,-1.79324 -7.42193,1.42059 -2.49408,2.50097 -3.98192,4.76339 -6.83281,10.39 -2.79183,5.51006 -3.9687,8.22948 -6.62015,15.29725 -3.23361,8.61963 -3.2684,8.87914 -1.04395,7.78817 0.75652,-0.37103 1.33455,-0.71555 1.2845,-0.76559 z m 102.35497,0.31329 c -0.34375,-0.1965 -0.7375,-0.35728 -0.875,-0.35728 -0.1375,0 0.0312,0.16078 0.375,0.35728 0.34375,0.19651 0.7375,0.35729 0.875,0.35729 0.1375,0 -0.0312,-0.16078 -0.375,-0.35729 z m -100.75,-0.875 c 0.20625,-0.13329 0.2625,-0.24234 0.125,-0.24234 -0.1375,0 -0.41875,0.10905 -0.625,0.24234 -0.20625,0.13329 -0.2625,0.24235 -0.125,0.24235 0.1375,0 0.41875,-0.10906 0.625,-0.24235 z m 97.625,-0.25 c -0.275,-0.11817 -0.66875,-0.21485 -0.875,-0.21485 -0.23637,0 -0.19016,0.0794 0.125,0.21485 0.275,0.11818 0.66875,0.21486 0.875,0.21486 0.23637,0 0.19016,-0.0794 -0.125,-0.21486 z m -22.5625,-0.49658 c 0.37812,-0.002 0.6875,-0.0908 0.6875,-0.19752 0,-0.10676 -0.46713,-0.14956 -1.03806,-0.0951 l -1.03806,0.099 0.14499,-1.40489 c 0.0827,-0.80117 0.0453,-1.40489 -0.0869,-1.40489 -0.12756,0 -0.23193,0.37969 -0.23193,0.84375 0,0.46407 -0.0739,1.21304 -0.16413,1.66439 -0.15461,0.77306 -0.12925,0.81131 0.4375,0.65967 0.33089,-0.0885 0.911,-0.16252 1.28913,-0.16439 z m 2.00475,-0.4174 c -0.16925,-0.0685 -0.50675,-0.0727 -0.75,-0.009 -0.24324,0.0634 -0.10475,0.11942 0.30775,0.12451 0.4125,0.005 0.61151,-0.0468 0.44225,-0.11524 l 0,1e-5 z m 16.86504,0.0129 c -0.0831,-0.0831 -0.2987,-0.0919 -0.47917,-0.0197 -0.19943,0.0798 -0.14019,0.13905 0.15104,0.15104 0.26354,0.0109 0.4112,-0.0482 0.32813,-0.1313 l 0,-1e-5 z m -14.55906,-0.3461 c 0.0876,-0.14171 -0.0128,-0.18362 -0.23525,-0.0982 -0.4331,0.1662 -0.51235,0.34539 -0.15274,0.34539 0.12939,0 0.30398,-0.11121 0.38799,-0.24714 z m -52.12323,-0.89262 c 0,-0.52951 -0.10122,-0.8272 -0.25,-0.73525 -0.1375,0.085 -0.25,0.37287 -0.25,0.63976 0,0.39864 -0.18962,0.49158 -1.0625,0.52072 l -1.0625,0.0355 1,0.17904 c 0.55,0.0985 1.14062,0.19502 1.3125,0.21453 0.1981,0.0225 0.3125,-0.29022 0.3125,-0.85428 z m 55.34704,0.68499 c 0.0696,-0.11262 -0.20501,-0.1561 -0.61025,-0.0966 -0.40524,0.0595 -0.73679,0.15162 -0.73679,0.20477 0,0.19049 1.22316,0.0923 1.34704,-0.10814 z m -58.27979,-0.45922 c -0.16925,-0.0685 -0.50675,-0.0727 -0.75,-0.009 -0.24324,0.0634 -0.10475,0.11942 0.30775,0.12451 0.4125,0.005 0.61151,-0.0468 0.44225,-0.11524 l 0,1e-5 z m -15.38496,-0.23706 c -0.0831,-0.0831 -0.2987,-0.0919 -0.47917,-0.0197 -0.19943,0.0798 -0.14019,0.13904 0.15104,0.15104 0.26354,0.0109 0.4112,-0.0482 0.32813,-0.13131 l 0,-1e-5 z m 13.5,0 c -0.0831,-0.0831 -0.2987,-0.0919 -0.47917,-0.0197 -0.19943,0.0798 -0.14019,0.13904 0.15104,0.15104 0.26354,0.0109 0.4112,-0.0482 0.32813,-0.13131 l 0,-1e-5 z m -11.75,-0.25 c -0.0831,-0.0831 -0.2987,-0.0919 -0.47917,-0.0197 -0.19943,0.0798 -0.14019,0.13904 0.15104,0.15104 0.26354,0.0109 0.4112,-0.0482 0.32813,-0.13131 l 0,-1e-5 z m 8.81771,0.0544 c 0,-0.0532 -0.33156,-0.14529 -0.7368,-0.20477 -0.40524,-0.0595 -0.67985,-0.016 -0.61025,0.0966 0.12388,0.20044 1.34705,0.29863 1.34705,0.10814 z m 54.54744,-2.27838 c 0.0562,-0.48125 0.0122,-0.875 -0.0976,-0.875 -0.10989,0 -0.1998,0.39375 -0.1998,0.875 0,0.48125 0.0439,0.875 0.0976,0.875 0.0537,0 0.14362,-0.39375 0.1998,-0.875 z m -47.29744,-2 c 0,-0.48125 -0.0899,-0.875 -0.1998,-0.875 -0.10989,0 -0.15384,0.39375 -0.0977,0.875 0.0562,0.48125 0.14609,0.875 0.1998,0.875 0.0537,0 0.0976,-0.39375 0.0976,-0.875 z m 47.58284,-0.0625 c 0.0889,-0.46686 0.051,-0.8125 -0.0891,-0.8125 -0.13407,0 -0.24375,0.4125 -0.24375,0.91667 0,1.07145 0.11597,1.03516 0.33284,-0.10417 z m -47.83284,-1.8125 c 0,-0.4125 -0.093,-0.75 -0.20671,-0.75 -0.11368,0 -0.15716,0.3375 -0.0966,0.75 0.0605,0.4125 0.15356,0.75 0.2067,0.75 0.0531,0 0.0966,-0.3375 0.0966,-0.75 z m 48.08532,-0.19992 c 0.0982,-0.51544 0.0648,-0.76784 -0.0891,-0.67275 -0.13543,0.0837 -0.24623,0.50179 -0.24623,0.92909 0,0.94435 0.12476,0.84897 0.33532,-0.25634 z m -48.41299,-1.98758 c -0.0629,-0.24062 -0.11433,-0.0438 -0.11433,0.4375 0,0.48125 0.0514,0.67813 0.11433,0.4375 0.0629,-0.24062 0.0629,-0.63437 0,-0.875 z m -0.35902,-1.84918 c -0.1387,-0.1387 -0.17538,0.0945 -0.093,0.59133 0.11509,0.69423 0.1503,0.72944 0.22902,0.22902 0.0512,-0.32523 -0.0101,-0.69439 -0.136,-0.82035 z m -0.0633,-1.08832 c 0,-0.34375 -0.0969,-0.625 -0.21534,-0.625 -0.11843,0 -0.16156,0.28125 -0.0958,0.625 0.0657,0.34375 0.16261,0.625 0.21533,0.625 0.0527,0 0.0959,-0.28125 0.0959,-0.625 z"
       id="path3682" />
    <path
       style="fill:#000000;fill-opacity:1;stroke:none;stroke-width:0.25000000000000000;stroke-linecap:round;stroke-linejoin:round;stroke-miterlimit:4;stroke-opacity:1;stroke-dasharray:none"
       d="m 407.3665,208.14134 c 0.66085,-19.52223 -5.698,-32.64661 -18.26848,-37.70524 -8.21495,-3.30587 -18.97945,-3.28964 -32.51814,0.049 -4.83355,1.19196 -4.53398,1.02997 -4.71241,2.54811 -0.49138,4.18088 -3.87837,10.51127 -7.29426,13.6332 -1.78618,1.63247 -3.35677,2.36996 -5.31518,2.49582 -1.37954,0.0887 -1.77188,0.003 -3.2069,-0.70391 -2.08127,-1.02461 -4.13837,-3.03485 -5.95058,-5.81502 -2.73161,-4.19066 -4.06362,-7.90763 -3.79356,-10.58596 l 0.15341,-1.52148 -1.94719,-0.52116 c -2.93425,-0.78534 -9.89114,-2.24235 -12.43333,-2.60395 -2.99175,-0.42555 -12.67665,-0.43082 -15.125,-0.008 -2.9546,0.50997 -7.98865,2.2167 -10.11897,3.43071 -8.4964,4.84189 -13.3894,13.33769 -14.89969,25.87059 -0.32179,2.67038 -0.39587,11.66675 -0.1129,13.71097 0.16818,1.21494 0.14322,1.32794 -0.27545,1.24731 -0.67722,-0.13042 -0.81221,-1.34811 -0.82859,-7.47417 -0.0193,-7.20979 0.5797,-11.72251 2.25428,-16.98411 1.59249,-5.00364 4.401,-9.65798 7.84444,-13 0.92087,-0.89375 1.83627,-1.93194 2.03422,-2.30709 0.19795,-0.37515 1.19811,-3.04302 2.22257,-5.92859 2.77969,-7.82941 4.63687,-12.31457 7.51099,-18.13932 3.0738,-6.22941 5.05509,-9.32549 7.61032,-11.89233 3.00928,-3.02295 5.27007,-3.70615 7.52725,-2.27469 1.58523,1.00532 2.39583,2.06478 3.76319,4.91847 1.30649,2.72667 2.61782,7.16175 3.57608,12.09471 0.70588,3.6338 1.79606,11.21128 2.04214,14.19427 0.0926,1.12223 0.23735,2.14277 0.32172,2.26786 0.0844,0.12509 2.36962,0.76691 5.07833,1.42626 l 4.92493,1.19881 1.22594,-0.75433 c 6.01488,-3.701 17.02753,-3.24976 21.78176,0.89249 l 1.10756,0.96499 4.76744,-1.22748 c 2.62209,-0.67512 4.88868,-1.35834 5.03686,-1.51826 0.14819,-0.15992 0.62896,-3.10813 1.06839,-6.55157 2.32765,-18.23996 5.7693,-27.07555 10.73226,-27.55242 3.13104,-0.30086 6.86874,3.17167 10.8126,10.0455 3.57439,6.22988 7.38416,15.20079 11.13251,26.21387 0.77388,2.27375 0.9681,2.59088 2.75588,4.5 2.85672,3.05059 4.7366,5.7008 6.23571,8.79091 3.00672,6.19774 4.18764,12.15886 4.21228,21.26294 0.0153,5.6411 -0.19279,7.875 -0.73345,7.875 -0.2973,0 -0.3289,-0.72458 -0.19898,-4.5625 l 0,0 z M 341.58574,187.5593 c 2.20521,-1.04644 5.03291,-4.32015 6.92262,-8.01452 1.59823,-3.12454 2.31432,-5.46519 2.22419,-7.2701 -0.0706,-1.41439 -3.73931,-3.6989 -6.94843,-4.32684 -2.43892,-0.47723 -9.57642,-0.19978 -11.34127,0.44085 -2.99603,1.08756 -4.76152,2.45083 -5.14317,3.97145 -0.55756,2.22153 2.84737,9.40728 6.11638,12.90799 2.55821,2.73952 5.49137,3.56212 8.16968,2.29117 l 0,0 z m 52.5672,-16.73333 c 0.0602,-0.37978 0.0229,-0.41537 -0.15779,-0.15079 -0.16232,0.2376 -0.46088,0.29129 -0.95094,0.17102 -0.68383,-0.16784 -0.69298,-0.1588 -0.21433,0.21179 0.64517,0.49951 1.22316,0.39816 1.32306,-0.23202 z m -108.0631,-0.7235 c 0.44947,-0.32866 0.4364,-0.34293 -0.20222,-0.22085 -0.5853,0.11188 -0.68501,0.0461 -0.69859,-0.46113 l -0.0159,-0.59165 -0.23464,0.58559 c -0.40213,1.00361 0.21519,1.37254 1.1513,0.68804 l 0,0 z m 107.78581,-0.4455 c -0.0798,-0.19943 -0.13904,-0.1402 -0.15104,0.15104 -0.0109,0.26354 0.0482,0.4112 0.13131,0.32813 0.0831,-0.0831 0.0919,-0.2987 0.0197,-0.47917 l 10e-6,0 z m -30.92077,-1.70313 c 0,-0.1375 -0.11914,-0.25 -0.26476,-0.25 -0.14561,0 -0.19522,0.1125 -0.11024,0.25 0.085,0.1375 0.20412,0.25 0.26475,0.25 0.0606,0 0.11025,-0.1125 0.11025,-0.25 z m 1.31725,-0.16398 c -0.16925,-0.0685 -0.50675,-0.0727 -0.75,-0.009 -0.24324,0.0634 -0.10475,0.11942 0.30775,0.12451 0.4125,0.005 0.61151,-0.0468 0.44225,-0.11524 l 0,1e-5 z m -47.8252,-1.41327 c -0.007,-0.50859 -0.0317,-0.51647 -0.34007,-0.11025 -0.18266,0.24063 -0.5447,0.44872 -0.80454,0.46242 -0.35311,0.0186 -0.31457,0.0718 0.15256,0.21062 0.7952,0.23627 1.00194,0.11898 0.99205,-0.56279 z m 46.43476,-0.48233 c -0.0598,-0.31098 -0.11099,-0.11542 -0.11377,0.43458 -0.003,0.55 0.0462,0.80444 0.10873,0.56542 0.0626,-0.23902 0.0648,-0.68902 0.005,-1 l -10e-6,0 z m 29.8537,0.39083 c -0.29471,-0.5068 -0.36587,-0.34458 -0.12463,0.28409 0.0857,0.22342 0.20855,0.35356 0.27292,0.2892 0.0644,-0.0644 -0.002,-0.32235 -0.14829,-0.57329 z m -0.75,-2 c -0.29471,-0.5068 -0.36587,-0.34458 -0.12463,0.28409 0.0857,0.22342 0.20855,0.35356 0.27292,0.2892 0.0644,-0.0644 -0.002,-0.32235 -0.14829,-0.57329 l 0,0 z m -0.80829,-2.30347 c -0.15402,-0.44181 -0.32378,-0.75955 -0.37726,-0.70608 -0.0535,0.0535 0.0288,0.45871 0.18281,0.90053 0.15402,0.44181 0.32379,0.75955 0.37726,0.70607 0.0535,-0.0535 -0.0288,-0.4587 -0.18281,-0.90052 z m -27.80145,-0.57465 c -0.0798,-0.19943 -0.13904,-0.1402 -0.15104,0.15104 -0.0109,0.26354 0.0482,0.4112 0.13131,0.32813 0.0831,-0.0831 0.0919,-0.2987 0.0197,-0.47917 l 10e-6,0 z m 27.10974,-1.12188 c -0.29471,-0.5068 -0.36587,-0.34458 -0.12463,0.28409 0.0857,0.22342 0.20855,0.35356 0.27292,0.2892 0.0644,-0.0644 -0.002,-0.32235 -0.14829,-0.57329 z m -0.67635,-1.81041 c -0.22921,-0.57287 -0.45771,-1.00062 -0.50777,-0.95056 -0.0501,0.0501 0.0941,0.56218 0.32027,1.13806 0.22621,0.57587 0.45471,1.00362 0.50778,0.95056 0.0531,-0.0531 -0.0911,-0.5652 -0.32028,-1.13806 z m -0.94959,-2.18623 c -0.21151,-0.39028 -0.38906,-0.63052 -0.39456,-0.53387 -0.0169,0.29717 0.56469,1.4579 0.67516,1.34742 0.0572,-0.0572 -0.0691,-0.42327 -0.2806,-0.81355 l 0,0 z m -98.66223,-0.70961 c 0,-0.1375 -0.10905,-0.0813 -0.24234,0.125 -0.13329,0.20625 -0.24235,0.4875 -0.24235,0.625 0,0.1375 0.10906,0.0812 0.24235,-0.125 0.13329,-0.20625 0.24234,-0.4875 0.24234,-0.625 z m 98.03817,-0.79375 c -0.29471,-0.5068 -0.36587,-0.34458 -0.12463,0.28409 0.0857,0.22343 0.20855,0.35356 0.27292,0.2892 0.0644,-0.0644 -0.002,-0.32235 -0.14829,-0.57329 z m -97.53817,-0.45625 c 0,-0.1375 -0.10905,-0.0813 -0.24234,0.125 -0.13329,0.20625 -0.24235,0.4875 -0.24235,0.625 0,0.1375 0.10906,0.0812 0.24235,-0.125 0.13329,-0.20625 0.24234,-0.4875 0.24234,-0.625 z m 96.16151,-2.53805 c -0.34681,-0.66657 -0.63581,-1.13058 -0.64221,-1.03113 -0.0182,0.28231 1.07107,2.4448 1.17773,2.33815 0.0523,-0.0523 -0.1887,-0.64044 -0.53552,-1.30702 z m -95.16151,0.28805 c 0,-0.1375 -0.10905,-0.0813 -0.24234,0.125 -0.13329,0.20625 -0.24235,0.4875 -0.24235,0.625 0,0.1375 0.10906,0.0812 0.24235,-0.125 0.13329,-0.20625 0.24234,-0.4875 0.24234,-0.625 z m 22.17843,-2.67187 c -0.0798,-0.19943 -0.13904,-0.14019 -0.15104,0.15104 -0.0109,0.26354 0.0482,0.4112 0.13131,0.32813 0.0831,-0.0831 0.0919,-0.2987 0.0197,-0.47917 l 10e-6,0 z m -0.5,-2.25 c -0.0798,-0.19943 -0.13904,-0.14019 -0.15104,0.15104 -0.0109,0.26354 0.0482,0.4112 0.13131,0.32813 0.0831,-0.0831 0.0919,-0.2987 0.0197,-0.47917 l 10e-6,0 z m 70.67649,-1.01563 c -0.91792,-1.79464 -2.65464,-4.69345 -2.90441,-4.84782 -0.14608,-0.0903 0.0372,0.33074 0.40725,0.93559 0.37007,0.60485 1.12785,1.91536 1.68397,2.91223 1.01094,1.81219 1.59759,2.53359 0.81319,1 z m -70.92649,0.0156 c -0.0798,-0.19943 -0.13904,-0.14019 -0.15104,0.15104 -0.0109,0.26354 0.0482,0.4112 0.13131,0.32813 0.0831,-0.0831 0.0919,-0.2987 0.0197,-0.47917 l 10e-6,0 z m 55.9157,-7.1314 c 1.41425,-2.78171 2.9641,-3.95255 4.97609,-3.75922 0.72071,0.0693 1.09165,0.0306 0.8961,-0.0933 -0.52498,-0.33278 -2.16508,-0.25454 -2.92737,0.13965 -1.65954,0.85818 -3.46663,3.67308 -4.87489,7.59358 -1.00745,2.80469 -0.76374,2.74448 0.31329,-0.0774 0.5248,-1.375 1.25235,-3.08647 1.61678,-3.80327 z m -71.20412,1.56979 c 0.30593,-0.53808 0.32539,-0.65476 0.0653,-0.39152 -0.20379,0.20625 -0.62399,0.825 -0.93377,1.375 -0.47475,0.84288 -0.485,0.9044 -0.0653,0.39152 0.27387,-0.33467 0.69407,-0.95342 0.93378,-1.375 z m 1.65474,-2.20402 c 0.59602,-0.72187 0.88349,-1.15457 0.63884,-0.96154 -0.51161,0.40363 -2.0293,2.27404 -1.84522,2.27404 0.0675,0 0.61037,-0.59062 1.20638,-1.3125 z m 79.96291,0.46812 c 0,-0.0519 -0.19688,-0.24879 -0.4375,-0.4375 -0.39652,-0.31097 -0.40536,-0.30213 -0.0944,0.0944 0.32659,0.41644 0.53189,0.54887 0.53189,0.34312 z m -69.63892,-1.68254 c -0.48298,-0.93397 -2.47454,-2.97308 -2.90376,-2.97308 -0.1682,0 0.13821,0.32715 0.68093,0.72699 0.54271,0.39984 1.31243,1.24359 1.7105,1.875 0.82986,1.31632 1.10369,1.51467 0.51233,0.37109 l 0,0 z m -7.97036,-1.24539 c 0.99726,-1.04893 1.99737,-1.54949 3.48428,-1.74387 l 1.25,-0.16342 -1.07492,-0.0352 c -0.5912,-0.0194 -1.43495,0.14861 -1.875,0.37327 -0.83825,0.42795 -3.05808,2.34153 -2.71627,2.34153 0.1087,0 0.52806,-0.34754 0.93191,-0.77231 z"
       id="path3684" />
    <g
       id="g3704"
       transform="translate(3.0363465e-6,0)">
      <path
         d="m 306.53078,142.75769 c 0,0.53697 -0.59359,0.97227 -1.32582,0.97227 -0.73224,0 -1.32583,-0.4353 -1.32583,-0.97227 0,-0.53697 0.59359,-0.97227 1.32583,-0.97227 0.73223,0 1.32582,0.4353 1.32582,0.97227 z"
         sodipodi:ry="0.9722718"
         sodipodi:rx="1.3258252"
         sodipodi:cy="142.75769"
         sodipodi:cx="305.20496"
         id="path3700"
         style="fill:#ffffff;fill-opacity:1;stroke:none"
         sodipodi:type="arc" />
      <path
         d="m 303.70237,148.23778 c 0,1.80617 -1.58291,3.27037 -3.53553,3.27037 -1.95262,0 -3.53553,-1.4642 -3.53553,-3.27037 0,-1.80618 1.58291,-3.27037 3.53553,-3.27037 1.95262,0 3.53553,1.46419 3.53553,3.27037 z"
         sodipodi:ry="3.2703688"
         sodipodi:rx="3.5355339"
         sodipodi:cy="148.23778"
         sodipodi:cx="300.16684"
         id="path3702"
         style="fill:#ffffff;fill-opacity:1;stroke:none"
         sodipodi:type="arc" />
    </g>
    <g
       transform="matrix(-1,0,0,1,676.7012,0.70710678)"
       id="g3723">
      <path
         sodipodi:type="arc"
         style="fill:#ffffff;fill-opacity:1;stroke:none"
         id="path3725"
         sodipodi:cx="305.20496"
         sodipodi:cy="142.75769"
         sodipodi:rx="1.3258252"
         sodipodi:ry="0.9722718"
         d="m 306.53078,142.75769 c 0,0.53697 -0.59359,0.97227 -1.32582,0.97227 -0.73224,0 -1.32583,-0.4353 -1.32583,-0.97227 0,-0.53697 0.59359,-0.97227 1.32583,-0.97227 0.73223,0 1.32582,0.4353 1.32582,0.97227 z" />
      <path
         sodipodi:type="arc"
         style="fill:#ffffff;fill-opacity:1;stroke:none"
         id="path3727"
         sodipodi:cx="300.16684"
         sodipodi:cy="148.23778"
         sodipodi:rx="3.5355339"
         sodipodi:ry="3.2703688"
         d="m 303.70237,148.23778 c 0,1.80617 -1.58291,3.27037 -3.53553,3.27037 -1.95262,0 -3.53553,-1.4642 -3.53553,-3.27037 0,-1.80618 1.58291,-3.27037 3.53553,-3.27037 1.95262,0 3.53553,1.46419 3.53553,3.27037 z" />
    </g>
    <path
       style="fill:#ffa02a;stroke:#000000;stroke-width:1px;stroke-linecap:butt;stroke-linejoin:miter;stroke-opacity:1;fill-opacity:1"
       d="m 376.8879,124.63808 c 60.10408,-65.760925 38.18378,25.45585 38.18378,25.45585 l 0.7071,-0.70711"
       id="path3731"
       sodipodi:nodetypes="ccc" />
    <path
       sodipodi:nodetypes="ccc"
       id="path3733"
       d="m 300.88422,122.51676 c -60.10408,-65.760925 -38.18378,25.45585 -38.18378,25.45585 l -0.7071,-0.70711"
       style="fill:#ff9c2a;stroke:#000000;stroke-width:1px;stroke-linecap:butt;stroke-linejoin:miter;stroke-opacity:1;fill-opacity:1" />
    <path
       style="fill:#ff8080;fill-opacity:1;stroke:none"
       d="m 338.20148,187.96083 c -1.617,-0.29842 -2.96296,-1.05832 -4.41151,-2.49064 -3.01256,-2.97878 -6.41607,-9.60122 -6.41607,-12.48417 0,-1.45342 1.11522,-2.72389 3.28582,-3.74326 2.18361,-1.02548 3.22692,-1.24351 6.78221,-1.41738 1.94791,-0.0953 5.19906,0.0133 6.29824,0.21037 1.92353,0.3448 4.66309,1.60403 5.85331,2.69044 0.40779,0.37222 0.91708,1.21925 1.01909,1.6949 0.19046,0.88808 -0.20067,2.44512 -1.28687,5.12285 -1.0929,2.69425 -2.64833,5.20439 -4.50584,7.27148 -2.18592,2.43254 -4.50612,3.53523 -6.61838,3.14541 l 0,0 z"
       id="path3735" />
    <path
       style="fill:#ff9955;fill-opacity:1;stroke:none"
       d="m 598.73471,258.31425 c -25.04255,-2.93761 -41.40837,-7.38493 -58.68986,-15.94865 -23.79824,-11.79303 -39.989,-29.18101 -45.3332,-48.68534 -1.70358,-6.21743 -1.70358,-19.1566 0,-25.37403 2.92522,-10.67595 8.81363,-20.38283 17.84073,-29.40993 5.60694,-5.60694 17.25438,-14.4716 19.0145,-14.4716 0.69141,0 3.00705,11.2788 2.63217,12.82051 -0.0597,0.24537 0.56524,1.04087 1.38868,1.76776 1.48285,1.30901 1.49266,1.30475 1.02645,-0.44613 -1.83842,-6.9043 -3.5163,-20.51226 -3.57468,-28.99138 -0.0745,-10.825574 0.76482,-14.727918 3.82631,-17.789405 4.99665,-4.99665 13.66755,-0.74417 29.42069,14.428825 4.05606,3.90669 7.58364,6.89409 7.83907,6.63867 0.25543,-0.25543 -0.40624,-1.37318 -1.47037,-2.48389 l -1.93479,-2.01948 3.11751,-0.785 c 20.83704,-5.24682 51.20525,-5.68976 75.69455,-1.10403 l 6.25004,1.17035 -3.37898,3.43056 c -1.85844,1.88681 -3.16598,3.64356 -2.90565,3.90389 0.26033,0.26033 3.79193,-2.72306 7.84799,-6.62975 15.74189,-15.162168 24.42485,-19.424655 29.41136,-14.438148 2.47971,2.4797 3.56036,5.952814 4.05434,13.030298 0.51204,7.33624 -1.29173,23.34232 -3.78753,33.60936 -0.46294,1.90439 -0.45555,1.90869 1.02573,0.59658 0.82062,-0.72689 1.4402,-1.52239 1.37685,-1.76776 -0.13597,-0.52669 2.45454,-17.29989 2.729,-17.66986 0.31773,-0.42831 8.837,4.90241 14.05932,8.79726 5.14676,3.83849 13.80854,12.27576 16.99879,16.55819 11.6053,15.57835 14.8855,33.82465 9.11227,50.68755 -3.40883,9.95678 -9.14,18.33848 -18.6684,27.30213 -18.53139,17.43299 -46.66585,29.01699 -79.34005,32.66723 -8.33185,0.9308 -29.70791,1.29438 -35.58284,0.60522 l 0,0 z m 5.5624,-48.05328 c 1.83671,-0.62583 4.42883,-2.16527 5.76027,-3.42099 l 2.42081,-2.28312 1.92066,2.00474 c 2.9367,3.06526 8.5085,4.84749 14.94475,4.78033 6.24112,-0.0651 11.56405,-1.25699 12.03393,-2.69454 0.2502,-0.76549 -0.13025,-0.86248 -1.71521,-0.43728 -11.5999,3.11189 -19.14833,1.98971 -24.31426,-3.61466 l -2.95177,-3.20229 -2.42846,2.83711 c -4.88112,5.70249 -14.69326,7.23163 -25.19848,3.92699 -0.79101,-0.24882 -1.23744,-0.017 -1.23744,0.64256 0,2.38262 14.96948,3.43595 20.7652,1.46115 z m 77.23697,-9.22833 c 0.68656,-3.65968 -0.16651,-15.36465 -1.48624,-20.39295 -1.45179,-5.5314 -4.03188,-10.45407 -7.81523,-14.91102 -2.24653,-2.64651 -3.8375,-5.72754 -6.01934,-11.65694 -9.17201,-24.92594 -17.57856,-35.05773 -23.65129,-28.50514 -3.10237,3.34751 -6.40809,14.79501 -7.74918,26.83489 -0.26274,2.35878 -0.69194,4.63509 -0.95379,5.05847 -0.26184,0.42337 -2.38526,1.27253 -4.71871,1.88702 -4.02618,1.06024 -4.33586,1.04903 -6.06973,-0.21984 -4.31954,-3.16106 -13.00069,-3.79677 -19.35944,-1.41766 -3.50173,1.31017 -4.32035,1.37434 -7.74756,0.60737 -2.10767,-0.47168 -4.14745,-1.05248 -4.53286,-1.29068 -0.38541,-0.23819 -1.21039,-4.11845 -1.8333,-8.62279 -2.00388,-14.49041 -5.20136,-23.41928 -9.03827,-25.23914 -3.89416,-1.84702 -8.73149,2.0559 -13.8318,11.15997 -2.28942,4.08661 -7.6628,16.92512 -9.64581,23.04653 -0.66535,2.05389 -2.57341,5.24387 -4.44097,7.42462 -6.5724,7.67458 -9.60957,17.45486 -9.26092,29.82198 0.13124,4.65531 0.48757,7.2158 1.02919,7.39536 0.59997,0.19891 0.83652,-1.96639 0.85771,-7.85126 0.0171,-4.74342 0.48746,-10.10164 1.13002,-12.8723 2.37892,-10.25771 8.91306,-18.33687 17.44992,-21.57601 4.01298,-1.52264 5.51984,-1.69203 14.38213,-1.61668 7.14141,0.0607 11.35088,0.45472 15.10888,1.41421 5.20455,1.32881 5.20959,1.33246 5.44116,3.92478 0.33678,3.77011 3.99132,10.52252 7.32507,13.53437 3.37351,3.04776 6.6655,3.44662 10.23562,1.24016 3.62808,-2.24228 7.62258,-8.5971 8.56643,-13.62828 0.47067,-2.50888 0.57533,-2.57905 5.53911,-3.71345 18.65221,-4.2627 31.58094,-2.3857 39.73547,5.76884 6.5071,6.5071 9.51808,15.76065 9.51808,29.25165 0,7.71252 0.88732,10.19897 1.83565,5.14392 z"
       id="path3737" />
    <path
       style="fill:none;stroke:#000000;stroke-width:1px;stroke-linecap:butt;stroke-linejoin:miter;stroke-opacity:1"
       d="m 332.42858,218.90426 0,3.35875 6.23137,-0.0442 0.53033,-0.0442 0.26517,-9.01562"
       id="path3739" />
    <path
       style="fill:#ffffff;stroke:#000000;stroke-width:1px;stroke-linecap:butt;stroke-linejoin:miter;stroke-opacity:1"
       d="m 339.36706,222.13043 5.39169,0.0442 0,-4.15426"
       id="path3741" />
    <path
       style="fill:#ffffff;fill-opacity:1;stroke:none"
       d="m 333.46637,220.6783 c 0,-0.5372 1.11369,-1.82619 2.47487,-2.86441 l 2.47487,-1.88768 0,2.86441 c 0,2.80221 -0.0537,2.86441 -2.47487,2.86441 -1.63397,0 -2.47487,-0.33187 -2.47487,-0.97673 z"
       id="path3743" />
    <path
       style="fill:#ffffff;fill-opacity:1;stroke:none"
       d=""
       id="path3745" />
    <path
       style="fill:#ffffff;fill-opacity:1;stroke:none"
       d="m 339.74261,221.33293 c 0,-0.3569 0.17449,-6.2333 0.18818,-6.3374 0.008,-0.0576 0.29778,0.21541 0.99395,0.9351 1.0463,1.08164 1.61072,1.56952 2.46389,2.12975 0.29168,0.19153 0.56424,0.37421 0.60568,0.40596 0.0667,0.0511 -0.15617,0.23365 -1.93108,1.58242 -1.64297,1.2485 -2.03489,1.52718 -2.16352,1.53841 l -0.1571,0.0137 0,-0.26796 z"
       id="path3747" />
    <path
       style="fill:#ffffff;fill-opacity:1;stroke:none"
       d="m 332.94699,220.62578 0.0118,-1.11561 0.57452,-0.30887 c 0.74805,-0.40215 1.20747,-0.67718 1.84907,-1.10696 0.28778,-0.19277 0.53188,-0.34185 0.54245,-0.33128 0.0106,0.0106 -0.16523,0.16928 -0.39066,0.3527 -0.22543,0.18342 -0.64956,0.57903 -0.94252,0.87913 -0.78259,0.80167 -1.12463,1.31702 -1.12463,1.69448 0,0.44671 0.37055,0.72751 1.17115,0.88747 0.44152,0.0882 1.75409,0.12677 2.39737,0.0704 0.62004,-0.0543 0.84821,-0.13516 1.05892,-0.37516 0.29049,-0.33085 0.29413,-0.36594 0.31189,-3.00818 l 0.016,-2.38146 -0.27901,0.21899 c -0.7665,0.60161 -1.5905,1.21423 -1.60871,1.19603 -0.0113,-0.0113 0.0663,-0.0915 0.17227,-0.17838 0.106,-0.0869 0.62855,-0.5662 1.16122,-1.06519 l 0.96849,-0.90727 0.0131,0.26072 c 0.0163,0.32495 -0.16097,6.24033 -0.18782,6.26718 -0.0108,0.0108 -1.3037,0.0302 -2.87316,0.0432 l -2.85358,0.0236 0.0118,-1.11562 0,0 z"
       id="path3749" />
    <path
       style="fill:#ffffff;fill-opacity:1;stroke:none"
       d="m 332.95254,221.56241 c 0.0151,-0.0911 0.0276,-0.58602 0.0279,-1.09972 l 4.8e-4,-0.93398 0.74026,-0.40927 c 0.40713,-0.2251 0.98638,-0.56631 1.2872,-0.75824 0.30083,-0.19192 0.55349,-0.34242 0.56148,-0.33443 0.008,0.008 -0.18382,0.19275 -0.42624,0.41058 -0.70833,0.63651 -1.31651,1.33366 -1.54899,1.77561 -0.21784,0.41412 -0.16171,0.80899 0.14864,1.04571 0.20322,0.155 0.78822,0.33549 1.20429,0.37155 l 0.35356,0.0306 -0.37565,0.0292 c -0.20661,0.0161 -0.7412,0.0312 -1.18798,0.0336 l -0.81233,0.004 0.0274,-0.16573 z"
       id="path3751" />
    <path
       style="fill:#ffffff;fill-opacity:1;stroke:none"
       d="m 332.95251,221.45649 c 0.0156,-0.14941 0.0284,-0.64405 0.0284,-1.0992 l 0,-0.82756 0.71816,-0.40027 c 0.39498,-0.22015 0.97325,-0.56078 1.28502,-0.75695 0.31178,-0.19618 0.57786,-0.35669 0.59129,-0.35669 0.0134,0 -0.16211,0.17335 -0.39009,0.38522 -0.82951,0.77089 -1.45402,1.49283 -1.63563,1.89078 -0.11553,0.25317 -0.10763,0.5905 0.0182,0.77792 0.18695,0.27839 0.74192,0.49737 1.42386,0.56182 l 0.30936,0.0292 -0.37565,0.0293 c -0.20661,0.0161 -0.74143,0.0313 -1.18849,0.0337 l -0.81284,0.004 0.0284,-0.27165 z"
       id="path3753" />
    <path
       style="fill:#ffffff;fill-opacity:1;stroke:none"
       d="m 337.33403,221.63877 c 0.6341,-0.0999 0.98656,-0.43838 1.01869,-0.97823 l 0.0167,-0.28033 -0.0422,0.2316 c -0.0585,0.32122 -0.2058,0.61501 -0.37187,0.74168 -0.27896,0.21277 -0.60558,0.25993 -1.81457,0.26199 -1.25651,0.002 -1.64645,-0.052 -2.14342,-0.29774 -0.81104,-0.40101 -0.61916,-1.04654 0.70632,-2.37624 0.5906,-0.59249 0.74479,-0.71977 2.43147,-2.00724 l 1.25953,-0.96143 0.0255,0.28125 0.0255,0.28124 0.008,-0.34511 c 0.006,-0.26579 -0.005,-0.3375 -0.0476,-0.31199 -0.0304,0.0182 -0.35014,0.25981 -0.71056,0.53686 -0.36042,0.27704 -0.66353,0.4955 -0.67358,0.48546 -0.0171,-0.0171 1.23642,-1.19861 1.62795,-1.53442 l 0.17808,-0.15274 -0.0311,1.52276 c -0.0331,1.62011 -0.14707,4.86248 -0.17174,4.88715 -0.008,0.008 -0.36151,0.0243 -0.78532,0.036 -0.57787,0.0159 -0.70425,0.0108 -0.5054,-0.0205 z m 1.07138,-2.39656 c -0.008,-0.17622 -0.0153,-0.032 -0.0153,0.32041 0,0.35245 0.007,0.49663 0.0153,0.32041 0.008,-0.17623 0.008,-0.46459 0,-0.64082 z"
       id="path3755" />
    <path
       style="fill:#ffffff;fill-opacity:1;stroke:none"
       d="m 337.29416,221.64359 c 0.36084,-0.0588 0.54778,-0.13637 0.73352,-0.30417 0.22631,-0.20446 0.29402,-0.34264 0.32199,-0.65709 l 0.0229,-0.25792 -0.0574,0.24306 c -0.12525,0.53015 -0.29894,0.72841 -0.76019,0.86772 -0.2275,0.0687 -0.4284,0.0798 -1.41421,0.0783 -1.30379,-0.002 -1.65833,-0.0506 -2.14342,-0.29379 -0.81013,-0.40606 -0.6194,-1.04825 0.70632,-2.37819 0.58958,-0.59146 0.74123,-0.71671 2.43147,-2.00808 l 1.25953,-0.96232 0.0262,0.21582 0.0262,0.21582 0.007,-0.25412 c 0.004,-0.13991 -0.0124,-0.25412 -0.036,-0.25412 -0.0236,0 -0.34358,0.23028 -0.71098,0.51172 -0.36741,0.28145 -0.67577,0.50396 -0.68525,0.49448 -0.0167,-0.0167 1.48011,-1.42737 1.69783,-1.60012 l 0.108,-0.0857 -0.031,1.522 c -0.034,1.66921 -0.14686,4.86139 -0.17283,4.88736 -0.009,0.009 -0.36252,0.0253 -0.78563,0.0362 -0.49135,0.0127 -0.68789,0.007 -0.54399,-0.0169 z m 1.11009,-2.06992 c -0.0101,-0.0668 -0.0184,-0.0121 -0.0184,0.12153 0,0.13369 0.008,0.18838 0.0184,0.12154 0.0101,-0.0669 0.0101,-0.17623 0,-0.24307 z"
       id="path3757" />
    <path
       style="fill:#ffffff;fill-opacity:1;stroke:none"
       d="m 339.76,221.27945 c 0.0142,-0.17859 0.0572,-1.55773 0.0958,-3.06475 0.0385,-1.50702 0.0846,-2.83948 0.10239,-2.96101 l 0.0324,-0.22097 1.08034,1.06358 c 1.18625,1.16786 1.46182,1.40411 2.32636,1.99439 l 0.58312,0.39813 -0.16327,0.15469 c -0.33541,0.31778 -3.49803,2.70475 -3.76026,2.83804 -0.0634,0.0322 -0.16195,0.073 -0.21893,0.0906 l -0.10362,0.032 0.0257,-0.32471 0,0 z"
       id="path3759" />
    <path
       style="fill:#ffffff;fill-opacity:1;stroke:none"
       d="m 340.32481,221.59996 -0.1912,-0.0265 2.00003,-1.5247 c 1.10002,-0.83859 2.0263,-1.54061 2.05841,-1.56004 0.0479,-0.029 0.0584,0.24939 0.0584,1.55784 l 0,1.59319 -1.86721,-0.007 c -1.02696,-0.004 -1.95324,-0.0186 -2.0584,-0.0331 z"
       id="path3761" />
    <path
       style="fill:#ff9d2a;fill-opacity:1;stroke:#000000;stroke-linecap:round;stroke-linejoin:round;stroke-opacity:1"
       d="m 504.79926,495.54882 c 0.70398,5.38642 0.40875,9.37052 -0.87796,12.48986 -1.28672,3.11933 -3.56491,5.37391 -6.82686,7.30129 -3.26194,1.92739 -7.50764,3.52758 -12.72935,5.33815 -5.22172,1.81056 -11.41945,3.83151 -18.58547,6.6004 -6.97967,2.69689 -9.21295,5.56627 -9.25311,8.35335 -0.0401,2.78708 2.11283,5.49185 3.90567,7.85951 1.79284,2.36766 3.22555,4.3982 1.74486,5.83684 -1.48068,1.43863 -5.87476,2.28535 -15.7355,2.28535 -9.86074,0 -27.34923,0.81638 -48.43919,1.80601 -21.08995,0.98964 -45.78136,2.15253 -70.04793,2.84557 -24.26657,0.69303 -48.10831,0.91621 -67.49891,0.0264 -19.3906,-0.88979 -34.33007,-2.89256 -40.79211,-6.65142 -6.46204,-3.75886 -11.36357,-7.85679 -14.95037,-12.22356 -3.58679,-4.36677 -5.85885,-9.00238 -7.06195,-13.83658 -1.2031,-4.8342 -1.33723,-9.86699 -0.64817,-15.02814 0.68906,-5.16114 2.20131,-10.45064 4.29099,-15.79826 1.87729,-4.80409 4.16713,-9.58889 6.94981,-14.29873 2.78267,-4.70983 6.05818,-9.3447 9.90677,-13.84891 3.8486,-4.50421 8.27029,-8.87776 13.34535,-13.06498 5.07505,-4.18722 10.80346,-8.1881 17.2655,-11.94696 6.46204,-3.75886 13.54037,-7.15923 21.13927,-10.14543 7.59891,-2.98619 15.38651,-7.20531 23.93082,-9.30747 8.54431,-2.10217 7.55764,-1.75797 16.85589,-2.86474 9.29825,-1.10676 12.66697,-1.65129 22.481,-0.69974 10.1926,0.98826 31.97198,9.55133 44.46281,12.07868 12.49084,2.52735 31.95428,-3.28695 44.48409,1.55892 12.5298,4.84587 24.4313,10.7988 34.40895,17.75438 9.97764,6.95557 18.03142,14.91379 22.86577,23.77024 1.50432,2.75589 4.19655,4.62475 7.30073,6.12715 3.10417,1.50241 6.62028,2.63836 9.77236,3.92842 3.15208,1.29007 5.94012,2.73425 7.58815,4.85312 1.64803,2.11888 2.15606,4.91244 0.74809,8.90126 l 0,2e-5 z"
       sodipodi:nodetypes="cssssssssssssssssssssssssssssssscc"
       id="path3785"
       transform="matrix(0.75332897,0,0,0.75891449,49.762969,99.990987)" />
    <path
       sodipodi:type="arc"
       style="fill:#000000;fill-opacity:1;stroke:#000000;stroke-width:1.59300005;stroke-linecap:round;stroke-linejoin:round;stroke-miterlimit:4;stroke-opacity:1;stroke-dasharray:none"
       id="path3834"
       sodipodi:cx="402.16699"
       sodipodi:cy="461.66284"
       sodipodi:rx="2.1213202"
       sodipodi:ry="5.7452426"
       d="m 404.28831,461.66284 a 2.1213202,5.7452426 0 1 1 -4.24264,0 2.1213202,5.7452426 0 1 1 4.24264,0 z"
       transform="matrix(1.890461,0,0,0.88263162,-356.34624,52.151634)" />
    <path
       style="fill:#ff9d2a;fill-opacity:1;stroke:none"
       d="m 394.01166,464.05168 c 2.16249,-2.31774 5.40228,-5.83224 7.19954,-7.81003 l 3.26774,-3.59596 -0.56821,-0.61556 c -0.31253,-0.33857 -0.66805,-0.60443 -0.79008,-0.59082 -0.2737,0.0305 -10.29218,10.89272 -13.63657,14.78499 l -0.68928,0.80218 0.54162,0.63532 c 0.2979,0.34943 0.58702,0.62827 0.64253,0.61963 0.0555,-0.008 1.87023,-1.91203 4.03271,-4.22975 z"
       id="path3844" />
    <g
       id="g3864"
       transform="translate(-32.173357,42.072855)">
      <path
         sodipodi:nodetypes="cc"
         d="M 422.4963,407.83434 C 389.26229,328.63839 375.82726,393.69221 375.82726,393.69221"
         style="fill:#ff9d2a;fill-opacity:1;stroke:#000000;stroke-width:1px;stroke-linecap:butt;stroke-linejoin:miter;stroke-opacity:1"
         id="path3866" />
      <path
         sodipodi:nodetypes="ccc"
         id="path3856"
         d="M 416.48589,404.65237 C 393.72203,353.4026 387.19603,386.75442 387.14096,386.9747 l -1.06066,7.6014"
         style="fill:#d45500;stroke:none" />
    </g>
    <g
       id="g3877"
       transform="translate(-90.50967,-79.195959)">
      <path
         sodipodi:nodetypes="csssc"
         id="path3862"
         d="m 364.33913,455.54034 c 1.51788,-17.5788 -12.11791,-29.46231 -9.48634,-36.85798 2.63156,-7.39566 10.39355,-6.23764 16.34642,-6.749 5.95287,-0.51136 11.33407,2.61119 11.67894,9.75118 0.34487,7.13999 -4.34659,18.29742 -18.53902,33.8558 z"
         style="fill:#aa4400;stroke:#000000;stroke-width:0.69389629px;stroke-linecap:butt;stroke-linejoin:miter;stroke-opacity:1" />
      <path
         sodipodi:nodetypes="cc"
         id="path3869"
         d="m 358.76999,432.52303 c -2.05331,17.79899 -9.78247,19.36641 -9.78247,19.36641"
         style="fill:none;stroke:#000000;stroke-width:0.69999999;stroke-linecap:butt;stroke-linejoin:miter;stroke-miterlimit:4;stroke-opacity:1;stroke-dasharray:none" />
    </g>
    <g
       id="g4155">
      <g
         id="g4128">
        <g
           id="g4092"
           transform="translate(-1.5000002,8.1018673)">
          <path
             transform="matrix(0.7877193,0,0,1,53.462935,-30.405593)"
             d="m 401.5,697.86218 c 0,43.6305 -63.79942,79 -142.5,79 -78.70058,0 -142.5,-35.3695 -142.5,-79 0,-43.63049 63.79942,-79 142.5,-79 78.70058,0 142.5,35.36951 142.5,79 z"
             sodipodi:ry="79"
             sodipodi:rx="142.5"
             sodipodi:cy="697.86218"
             sodipodi:cx="259"
             id="path3881"
             style="fill:#ffb380;fill-opacity:1;stroke:none"
             sodipodi:type="arc" />
          <g
             transform="translate(-7.4246212,-16.758585)"
             id="g3918">
            <g
               id="g3897">
              <path
                 transform="matrix(1.3461538,0,0,1.0222222,-74.942308,-16.163603)"
                 d="m 229.5,671.11218 c 0,6.21321 -5.8203,11.25 -13,11.25 -7.1797,0 -13,-5.03679 -13,-11.25 0,-6.2132 5.8203,-11.25 13,-11.25 7.1797,0 13,5.0368 13,11.25 z"
                 sodipodi:ry="11.25"
                 sodipodi:rx="13"
                 sodipodi:cy="671.11218"
                 sodipodi:cx="216.5"
                 id="path3885"
                 style="fill:#000000;fill-opacity:1;stroke:none"
                 sodipodi:type="arc" />
              <path
                 inkscape:transform-center-y="4.4249613"
                 inkscape:transform-center-x="7.1898949"
                 id="path3893"
                 d="m 228.16241,678.24695 c -0.0568,-0.21726 -3.01387,-7.11564 -6.57191,-15.32945 -3.55803,-8.21382 -6.41209,-15.07971 -6.34233,-15.25754 0.22618,-0.57661 8.37776,-5.79631 8.72748,-5.58847 0.25355,0.15068 12.8708,28.61046 13.45815,30.35651 0.0582,0.17195 -1.83779,1.58055 -4.21263,3.12992 -4.95535,3.23293 -4.92199,3.2152 -5.05876,2.68903 z"
                 style="fill:#ffb380;fill-opacity:1;stroke:none" />
              <path
                 style="fill:#ffb380;fill-opacity:1;stroke:none"
                 d="m 218.59427,690.89467 c 0.12476,-0.095 6.61341,-3.11306 14.42092,-6.70655 7.80751,-3.59351 14.07024,-6.59731 13.91716,-6.67511 -0.49628,-0.25226 -18.38356,-2.53586 -19.15097,-2.44492 -0.55636,0.0659 -28.24279,12.51693 -29.53159,13.28082 -0.12783,0.0753 4.0327,0.69148 9.24387,1.36932 10.87371,1.4144 10.80046,1.40664 11.10061,1.17644 z"
                 id="path3895"
                 inkscape:transform-center-x="-15.777004"
                 inkscape:transform-center-y="1.9358987" />
            </g>
            <path
               sodipodi:type="arc"
               style="fill:#f9f9f9;fill-opacity:1;stroke:none"
               id="path3910"
               sodipodi:cx="214.96046"
               sodipodi:cy="667.16577"
               sodipodi:rx="2.8284271"
               sodipodi:ry="1.9445436"
               d="m 217.78889,667.16577 c 0,1.07394 -1.26633,1.94455 -2.82843,1.94455 -1.56209,0 -2.82842,-0.87061 -2.82842,-1.94455 0,-1.07394 1.26633,-1.94454 2.82842,-1.94454 1.5621,0 2.82843,0.8706 2.82843,1.94454 z"
               transform="translate(-3.8890873,-1.2374369)" />
            <path
               sodipodi:type="arc"
               style="fill:#f9f9f9;fill-opacity:1;stroke:none"
               id="path3914"
               sodipodi:cx="218.31921"
               sodipodi:cy="662.39282"
               sodipodi:rx="1.2374369"
               sodipodi:ry="1.0606601"
               d="m 219.55665,662.39282 c 0,0.58579 -0.55402,1.06066 -1.23744,1.06066 -0.68341,0 -1.23743,-0.47487 -1.23743,-1.06066 0,-0.58578 0.55402,-1.06066 1.23743,-1.06066 0.68342,0 1.23744,0.47488 1.23744,1.06066 z"
               transform="translate(-1.767767,0.88388348)" />
          </g>
          <g
             transform="matrix(-1,0,0,1,522.61021,-16.758585)"
             id="g3926">
            <g
               id="g3928">
              <path
                 sodipodi:type="arc"
                 style="fill:#000000;fill-opacity:1;stroke:none"
                 id="path3930"
                 sodipodi:cx="216.5"
                 sodipodi:cy="671.11218"
                 sodipodi:rx="13"
                 sodipodi:ry="11.25"
                 d="m 229.5,671.11218 c 0,6.21321 -5.8203,11.25 -13,11.25 -7.1797,0 -13,-5.03679 -13,-11.25 0,-6.2132 5.8203,-11.25 13,-11.25 7.1797,0 13,5.0368 13,11.25 z"
                 transform="matrix(1.3461538,0,0,1.0222222,-74.942308,-16.163603)" />
              <path
                 style="fill:#ffb380;fill-opacity:1;stroke:none"
                 d="m 228.16241,678.24695 c -0.0568,-0.21726 -3.01387,-7.11564 -6.57191,-15.32945 -3.55803,-8.21382 -6.41209,-15.07971 -6.34233,-15.25754 0.22618,-0.57661 8.37776,-5.79631 8.72748,-5.58847 0.25355,0.15068 12.8708,28.61046 13.45815,30.35651 0.0582,0.17195 -1.83779,1.58055 -4.21263,3.12992 -4.95535,3.23293 -4.92199,3.2152 -5.05876,2.68903 z"
                 id="path3932"
                 inkscape:transform-center-x="7.1898949"
                 inkscape:transform-center-y="4.4249613" />
              <path
                 inkscape:transform-center-y="1.9358987"
                 inkscape:transform-center-x="-15.777004"
                 id="path3934"
                 d="m 218.59427,690.89467 c 0.12476,-0.095 6.61341,-3.11306 14.42092,-6.70655 7.80751,-3.59351 14.07024,-6.59731 13.91716,-6.67511 -0.49628,-0.25226 -18.38356,-2.53586 -19.15097,-2.44492 -0.55636,0.0659 -28.24279,12.51693 -29.53159,13.28082 -0.12783,0.0753 4.0327,0.69148 9.24387,1.36932 10.87371,1.4144 10.80046,1.40664 11.10061,1.17644 z"
                 style="fill:#ffb380;fill-opacity:1;stroke:none" />
            </g>
            <path
               transform="translate(-3.8890873,-1.2374369)"
               d="m 217.78889,667.16577 c 0,1.07394 -1.26633,1.94455 -2.82843,1.94455 -1.56209,0 -2.82842,-0.87061 -2.82842,-1.94455 0,-1.07394 1.26633,-1.94454 2.82842,-1.94454 1.5621,0 2.82843,0.8706 2.82843,1.94454 z"
               sodipodi:ry="1.9445436"
               sodipodi:rx="2.8284271"
               sodipodi:cy="667.16577"
               sodipodi:cx="214.96046"
               id="path3936"
               style="fill:#f9f9f9;fill-opacity:1;stroke:none"
               sodipodi:type="arc" />
            <path
               transform="translate(-1.767767,0.88388348)"
               d="m 219.55665,662.39282 c 0,0.58579 -0.55402,1.06066 -1.23744,1.06066 -0.68341,0 -1.23743,-0.47487 -1.23743,-1.06066 0,-0.58578 0.55402,-1.06066 1.23743,-1.06066 0.68342,0 1.23744,0.47488 1.23744,1.06066 z"
               sodipodi:ry="1.0606601"
               sodipodi:rx="1.2374369"
               sodipodi:cy="662.39282"
               sodipodi:cx="218.31921"
               id="path3938"
               style="fill:#f9f9f9;fill-opacity:1;stroke:none"
               sodipodi:type="arc" />
          </g>
          <path
             transform="matrix(1,0,0,2.0222222,-1,-709.55357)"
             d="m 261.75,689.23718 c 0,3.1066 -3.69365,5.625 -8.25,5.625 -4.55635,0 -8.25,-2.5184 -8.25,-5.625 0,-3.1066 3.69365,-5.625 8.25,-5.625 4.55635,0 8.25,2.5184 8.25,5.625 z"
             sodipodi:ry="5.625"
             sodipodi:rx="8.25"
             sodipodi:cy="689.23718"
             sodipodi:cx="253.5"
             id="path3965"
             style="fill:#ff8366;fill-opacity:1;stroke:none"
             sodipodi:type="arc" />
          <path
             transform="matrix(1.1851852,0,0,2.2439024,-49.157407,-863.34075)"
             d="m 269.5,689.73718 c 0,2.83046 -3.02208,5.125 -6.75,5.125 -3.72792,0 -6.75,-2.29454 -6.75,-5.125 0,-2.83046 3.02208,-5.125 6.75,-5.125 3.72792,0 6.75,2.29454 6.75,5.125 z"
             sodipodi:ry="5.125"
             sodipodi:rx="6.75"
             sodipodi:cy="689.73718"
             sodipodi:cx="262.75"
             id="path3967"
             style="fill:#ff8366;fill-opacity:1;stroke:none"
             sodipodi:type="arc" />
          <path
             style="fill:#ffb380;fill-opacity:1;stroke:none"
             d="m 276.41085,685.95955 c 1.63476,-0.29218 1.97363,-0.52817 1.648,-1.14777 -0.22538,-0.42898 -7.02863,-8.74083 -15.1182,-18.4708 l -14.70833,-17.69083 -2.34596,0.48346 c -1.29026,0.2659 -2.29038,0.60958 -2.22251,0.76373 0.31431,0.71389 29.76679,36.04298 30.19872,36.22424 0.26969,0.11316 1.41645,0.0404 2.54828,-0.16203 l 0,0 z"
             id="path3973" />
          <path
             id="path3971"
             d="m 229.49352,695.63633 c -1.63476,-0.29218 -1.97363,-0.52817 -1.648,-1.14777 0.22538,-0.42898 7.02863,-8.74083 15.1182,-18.4708 l 14.70833,-17.69083 2.34596,0.48346 c 1.29026,0.2659 2.29038,0.60958 2.22251,0.76373 -0.31431,0.71389 -29.76679,36.04298 -30.19872,36.22424 -0.26969,0.11316 -1.41645,0.0404 -2.54828,-0.16203 l 0,0 z"
             style="fill:#ffb380;fill-opacity:1;stroke:none" />
          <path
             transform="matrix(0.96551724,0,0,1,7.8787542,-2.4748737)"
             d="m 264.36955,676.88849 c 0,1.95262 -2.86903,3.53553 -6.40815,3.53553 -3.53913,0 -6.40816,-1.58291 -6.40816,-3.53553 0,-1.95262 2.86903,-3.53554 6.40816,-3.53554 3.53912,0 6.40815,1.58292 6.40815,3.53554 z"
             sodipodi:ry="3.5355339"
             sodipodi:rx="6.4081554"
             sodipodi:cy="676.88849"
             sodipodi:cx="257.9614"
             id="path4003"
             style="fill:#ff8366;fill-opacity:1;stroke:none"
             sodipodi:type="arc" />
        </g>
        <path
           sodipodi:nodetypes="csss"
           id="path3961"
           d="m 298.62604,612.49016 c 21.65515,-22.09709 26.89216,-16.30766 35.82491,-13.57866 8.54349,2.61008 12.7224,8.05438 13.80515,18.97034 1.08276,10.91596 -0.54138,24.59406 -2.4362,35.54317"
           style="fill:#ffb380;stroke:#ffffff;stroke-width:2;stroke-linecap:butt;stroke-linejoin:miter;stroke-miterlimit:4;stroke-opacity:1;stroke-dasharray:none" />
        <path
           style="fill:#ffb380;stroke:#ffffff;stroke-width:2;stroke-linecap:butt;stroke-linejoin:miter;stroke-miterlimit:4;stroke-opacity:1;stroke-dasharray:none"
           d="m 216.37468,612.49016 c -21.65515,-22.09709 -26.89216,-16.30766 -35.82491,-13.57866 -8.54349,2.61008 -12.7224,8.05438 -13.80515,18.97034 -1.08276,10.91596 0.54138,24.59406 2.4362,35.54317"
           id="path3959"
           sodipodi:nodetypes="csss" />
        <path
           sodipodi:type="arc"
           style="fill:#ffb380;fill-opacity:1;stroke:#ffffff;stroke-width:1;stroke-linecap:round;stroke-linejoin:round;stroke-miterlimit:4;stroke-opacity:1;stroke-dasharray:none"
           id="path4124"
           sodipodi:cx="311.65732"
           sodipodi:cy="748.30627"
           sodipodi:rx="11.136931"
           sodipodi:ry="12.020815"
           d="m 322.79425,748.30627 a 11.136931,12.020815 0 1 1 -22.27386,0 11.136931,12.020815 0 1 1 22.27386,0 z"
           transform="matrix(2.0603864,0,0,0.98241679,-315.9815,6.8889939)" />
        <path
           transform="matrix(2.0603864,0,0,0.98241679,-458.10996,6.8889939)"
           d="m 322.79425,748.30627 a 11.136931,12.020815 0 1 1 -22.27386,0 11.136931,12.020815 0 1 1 22.27386,0 z"
           sodipodi:ry="12.020815"
           sodipodi:rx="11.136931"
           sodipodi:cy="748.30627"
           sodipodi:cx="311.65732"
           id="path4126"
           style="fill:#ffb380;fill-opacity:1;stroke:#ffffff;stroke-width:1;stroke-linecap:round;stroke-linejoin:round;stroke-miterlimit:4;stroke-opacity:1;stroke-dasharray:none"
           sodipodi:type="arc" />
      </g>
      <g
         transform="matrix(1.6819422,0,0,1.2967493,-167.85909,-204.92554)"
         id="g4120">
        <rect
           style="fill:#ffffff;fill-opacity:1;stroke:#ffffff;stroke-opacity:1"
           id="rect4114"
           width="5.833631"
           height="7.4246211"
           x="245.89638"
           y="712.86255"
           ry="1.2961156" />
        <rect
           ry="1.2961156"
           y="712.86255"
           x="252.26035"
           height="7.4246211"
           width="5.833631"
           id="rect4118"
           style="fill:#ffffff;fill-opacity:1;stroke:#ffffff;stroke-opacity:1" />
      </g>
    </g>
    <g
       id="g4247">
      <path
         d="m 373.5,923.11218 a 128.5,76.25 0 1 1 -257,0 128.5,76.25 0 1 1 257,0 z"
         sodipodi:ry="76.25"
         sodipodi:rx="128.5"
         sodipodi:cy="923.11218"
         sodipodi:cx="245"
         id="path4186"
         style="fill:#ffb380;fill-opacity:1;stroke:#ffffff;stroke-width:1;stroke-linecap:round;stroke-linejoin:round;stroke-miterlimit:4;stroke-opacity:1;stroke-dasharray:none"
         sodipodi:type="arc" />
      <path
         transform="matrix(0.99984429,0,0,1.0380463,-34.938368,-43.947069)"
         sodipodi:nodetypes="csssssssc"
         id="path4192"
         d="m 462.6579,923.4092 c 0,12.63352 -2.61236,25.09281 -13.69646,33.37193 -11.0841,8.27912 -34.52963,14.42164 -51.44339,14.42164 -16.91377,0 -35.40879,-5.46133 -46.49289,-13.74045 -11.0841,-8.27912 -16.17171,-22.10079 -16.17171,-34.73431 0,-12.63351 6.14844,-30.20172 17.23254,-38.48084 11.0841,-8.27912 33.16199,-11.39795 49.32175,-6.58797 13.73128,4.08714 28.33661,13.97622 39.42071,22.25534 11.0841,8.27912 21.82945,10.86115 21.82945,23.49466 z"
         style="fill:#ffb380;fill-opacity:1;stroke:#ffffff;stroke-width:1;stroke-linecap:round;stroke-linejoin:round;stroke-miterlimit:4;stroke-opacity:1" />
      <path
         sodipodi:nodetypes="cc"
         id="path4207"
         d="m 378.12535,880.18168 c -35.17857,-71.24101 -45.78517,-6.36396 -45.78517,-6.36396"
         style="fill:#ffb380;fill-opacity:1;stroke:#fdfffe;stroke-width:1px;stroke-linecap:butt;stroke-linejoin:miter;stroke-opacity:1" />
      <path
         transform="matrix(1.484375,0,0,1,-193.00149,0)"
         d="m 398.45468,897.41742 a 5.6568542,8.3968935 0 1 1 -11.31371,0 5.6568542,8.3968935 0 1 1 11.31371,0 z"
         sodipodi:ry="8.3968935"
         sodipodi:rx="5.6568542"
         sodipodi:cy="897.41742"
         sodipodi:cx="392.79782"
         id="path4209"
         style="fill:#000000;fill-opacity:1;stroke:none"
         sodipodi:type="arc" />
      <path
         id="path4215"
         d="m 376.36178,905.16221 -1.54041,-1.32343 6.03472,-9.12312 c 3.31911,-5.01773 6.09656,-9.15515 6.17215,-9.19425 0.0755,-0.0391 0.79717,0.58967 1.60353,1.39732 l 1.46612,1.46846 -5.94099,8.98576 c -3.26754,4.94214 -6.01157,9.0143 -6.09784,9.0492 -0.0863,0.035 -0.85008,-0.53201 -1.69728,-1.25994 z"
         style="fill:#ffb380;fill-opacity:1;stroke:none" />
      <path
         id="path4221"
         d="m 387.492,905.84626 c -7.09759,-1.9624 -12.96827,-3.62057 -13.04597,-3.68483 -0.0777,-0.0643 0.002,-0.57425 0.17678,-1.13333 l 0.31804,-1.01649 12.99697,3.60705 c 7.14833,1.98388 13.08251,3.6926 13.18707,3.79716 0.24514,0.24514 -0.20238,2.04812 -0.50136,2.01987 -0.12476,-0.0118 -6.03395,-1.62704 -13.13153,-3.58943 z"
         style="fill:#ffb380;fill-opacity:1;stroke:none" />
      <path
         transform="translate(-1.767767,1.2374369)"
         d="m 393.32814,891.84894 a 1.3258252,0.88388348 0 1 1 -2.65165,0 1.3258252,0.88388348 0 1 1 2.65165,0 z"
         sodipodi:ry="0.88388348"
         sodipodi:rx="1.3258252"
         sodipodi:cy="891.84894"
         sodipodi:cx="392.00232"
         id="path4223"
         style="fill:#ffffff;fill-opacity:1;stroke:none"
         sodipodi:type="arc" />
      <path
         transform="translate(4.4194174,-0.88388347)"
         d="m 392.79781,897.15222 a 2.4748738,2.2980971 0 1 1 -4.94975,0 2.4748738,2.2980971 0 1 1 4.94975,0 z"
         sodipodi:ry="2.2980971"
         sodipodi:rx="2.4748738"
         sodipodi:cy="897.15222"
         sodipodi:cx="390.32294"
         id="path4225"
         style="fill:#ffffff;fill-opacity:1;stroke:none"
         sodipodi:type="arc" />
      <path
         transform="matrix(1.3666667,0,0,1.3409091,-156.29712,-310.92368)"
         d="m 427.71122,909.96857 a 2.6516504,3.8890872 0 1 1 -5.3033,0 2.6516504,3.8890872 0 1 1 5.3033,0 z"
         sodipodi:ry="3.8890872"
         sodipodi:rx="2.6516504"
         sodipodi:cy="909.96857"
         sodipodi:cx="425.05957"
         id="path4229"
         style="fill:#ff8080;fill-opacity:1;stroke:none"
         sodipodi:type="arc" />
      <path
         id="path4233"
         d="m 426.43608,905.9772 c -0.006,-0.006 -0.0102,-0.0353 -0.0103,-0.0661 -8e-4,-0.2437 -0.23337,-0.65985 -0.53774,-0.96224 -0.26189,-0.26019 -0.50241,-0.40816 -0.8508,-0.52344 -0.26853,-0.0888 -0.44309,-0.11469 -0.77533,-0.11477 -0.40528,-9e-5 -0.7668,0.0682 -1.20749,0.22818 -0.10552,0.0383 -0.19431,0.0654 -0.1973,0.0602 -0.0362,-0.0632 -0.3375,-0.89828 -0.32751,-0.90778 0.0222,-0.0211 0.39527,-0.15163 0.57805,-0.20221 0.50473,-0.13967 0.98916,-0.19352 1.42768,-0.15872 0.90008,0.0714 1.68284,0.46497 2.23846,1.12543 0.34917,0.41505 0.58813,0.91973 0.62985,1.33024 l 0.0104,0.10269 -0.45109,0.0424 c -0.2481,0.0233 -0.46587,0.0455 -0.48393,0.0494 -0.0181,0.004 -0.0374,0.002 -0.043,-0.003 l 0,0 z"
         style="fill:#ffb380;fill-opacity:1;stroke:none" />
      <path
         id="path4237"
         d="m 424.22233,905.1924 c -1.20437,-0.43177 -2.19282,-0.78814 -2.19656,-0.79191 -0.011,-0.0111 0.31818,-0.94375 0.3331,-0.94379 0.015,-4e-5 4.31491,1.53622 4.38035,1.56503 l 0.0412,0.0181 -0.12448,0.35361 c -0.0684,0.19449 -0.14312,0.40605 -0.16591,0.47014 -0.0228,0.0641 -0.0496,0.11593 -0.0597,0.11519 -0.0102,-7.4e-4 -1.00364,-0.35462 -2.20801,-0.78639 l 0,0 z"
         style="fill:#ffb380;fill-opacity:1;stroke:none" />
      <path
         id="path4241"
         d="m 423.05611,905.15373 c -0.60303,-0.0267 -1.10068,-0.0529 -1.10589,-0.0582 -0.005,-0.005 -9.2e-4,-0.22219 0.01,-0.4821 0.0157,-0.39024 0.023,-0.47411 0.0421,-0.48143 0.0174,-0.007 2.52202,0.0891 2.52654,0.0966 4.9e-4,8.2e-4 -0.008,0.19134 -0.0184,0.42337 -0.0106,0.23203 -0.0198,0.45176 -0.0204,0.48828 l -0.001,0.0664 -0.16797,-0.002 c -0.0924,-10e-4 -0.66135,-0.024 -1.26438,-0.0508 z"
         style="fill:#ffb380;fill-opacity:1;stroke:none" />
      <path
         id="path4245"
         d="m 421.75762,902.81909 c -1.69674,-0.95504 -3.08498,-1.74594 -3.08498,-1.75754 0,-0.0116 0.10195,-0.20289 0.22656,-0.42509 l 0.22657,-0.404 3.08593,1.73596 c 1.69727,0.95478 3.08594,1.74472 3.08594,1.75542 0,0.0107 -0.10238,0.20222 -0.22752,0.42558 l -0.22753,0.40612 -3.08497,-1.73645 0,0 z"
         style="fill:#ffb380;fill-opacity:1;stroke:none" />
    </g>
    <path
       sodipodi:type="arc"
       style="fill:#ffb380;fill-opacity:1;stroke:#ffffff;stroke-width:1;stroke-linecap:round;stroke-linejoin:round;stroke-miterlimit:4;stroke-opacity:1;stroke-dasharray:none"
       id="path4188"
       sodipodi:cx="336.25"
       sodipodi:cy="993.61218"
       sodipodi:rx="27.25"
       sodipodi:ry="13.75"
       d="m 363.5,993.61218 a 27.25,13.75 0 1 1 -54.5,0 27.25,13.75 0 1 1 54.5,0 z"
       transform="translate(-0.5,-8)" />
    <path
       transform="translate(-183,-8)"
       d="m 363.5,993.61218 a 27.25,13.75 0 1 1 -54.5,0 27.25,13.75 0 1 1 54.5,0 z"
       sodipodi:ry="13.75"
       sodipodi:rx="27.25"
       sodipodi:cy="993.61218"
       sodipodi:cx="336.25"
       id="path4190"
       style="fill:#ffb380;fill-opacity:1;stroke:#ffffff;stroke-width:1;stroke-linecap:round;stroke-linejoin:round;stroke-miterlimit:4;stroke-opacity:1;stroke-dasharray:none"
       sodipodi:type="arc" />
    <g
       id="g4262"
       transform="translate(304.5,-144.5)">
      <path
         sodipodi:type="arc"
         style="fill:#ffb380;fill-opacity:1;stroke:#ffffff;stroke-width:1;stroke-linecap:round;stroke-linejoin:round;stroke-miterlimit:4;stroke-opacity:1;stroke-dasharray:none"
         id="path4264"
         sodipodi:cx="245"
         sodipodi:cy="923.11218"
         sodipodi:rx="128.5"
         sodipodi:ry="76.25"
         d="m 373.5,923.11218 c 0,42.11171 -57.53141,76.25 -128.5,76.25 -70.96859,0 -128.5,-34.13829 -128.5,-76.25 0,-42.11171 57.53141,-76.25 128.5,-76.25 70.96859,0 128.5,34.13829 128.5,76.25 z" />
      <path
         style="fill:#ffb380;fill-opacity:1;stroke:#ffffff;stroke-width:1;stroke-linecap:round;stroke-linejoin:round;stroke-miterlimit:4;stroke-opacity:1"
         d="m 462.6579,923.4092 c 0,12.63352 -2.61236,25.09281 -13.69646,33.37193 -11.0841,8.27912 -34.52963,14.42164 -51.44339,14.42164 -16.91377,0 -35.40879,-5.46133 -46.49289,-13.74045 -11.0841,-8.27912 -16.17171,-22.10079 -16.17171,-34.73431 0,-12.63351 6.14844,-30.20172 17.23254,-38.48084 11.0841,-8.27912 33.16199,-11.39795 49.32175,-6.58797 13.73128,4.08714 28.33661,13.97622 39.42071,22.25534 11.0841,8.27912 21.82945,10.86115 21.82945,23.49466 z"
         id="path4266"
         sodipodi:nodetypes="csssssssc"
         transform="matrix(0.99984429,0,0,1.0380463,-34.938368,-43.947069)" />
      <path
         style="fill:#ffb380;fill-opacity:1;stroke:#fdfffe;stroke-width:1px;stroke-linecap:butt;stroke-linejoin:miter;stroke-opacity:1"
         d="m 378.12535,880.18168 c -35.17857,-71.24101 -45.78517,-6.36396 -45.78517,-6.36396"
         id="path4268"
         sodipodi:nodetypes="cc" />
      <path
         sodipodi:type="arc"
         style="fill:#000000;fill-opacity:1;stroke:none"
         id="path4270"
         sodipodi:cx="392.79782"
         sodipodi:cy="897.41742"
         sodipodi:rx="5.6568542"
         sodipodi:ry="8.3968935"
         d="m 398.45468,897.41742 c 0,4.63748 -2.53266,8.39689 -5.65686,8.39689 -3.12419,0 -5.65685,-3.75941 -5.65685,-8.39689 0,-4.63748 2.53266,-8.39689 5.65685,-8.39689 3.1242,0 5.65686,3.75941 5.65686,8.39689 z"
         transform="matrix(1.484375,0,0,1,-193.00149,0)" />
      <path
         style="fill:#ffb380;fill-opacity:1;stroke:none"
         d="m 376.36178,905.16221 -1.54041,-1.32343 6.03472,-9.12312 c 3.31911,-5.01773 6.09656,-9.15515 6.17215,-9.19425 0.0755,-0.0391 0.79717,0.58967 1.60353,1.39732 l 1.46612,1.46846 -5.94099,8.98576 c -3.26754,4.94214 -6.01157,9.0143 -6.09784,9.0492 -0.0863,0.035 -0.85008,-0.53201 -1.69728,-1.25994 z"
         id="path4272" />
      <path
         style="fill:#ffb380;fill-opacity:1;stroke:none"
         d="m 387.492,905.84626 c -7.09759,-1.9624 -12.96827,-3.62057 -13.04597,-3.68483 -0.0777,-0.0643 0.002,-0.57425 0.17678,-1.13333 l 0.31804,-1.01649 12.99697,3.60705 c 7.14833,1.98388 13.08251,3.6926 13.18707,3.79716 0.24514,0.24514 -0.20238,2.04812 -0.50136,2.01987 -0.12476,-0.0118 -6.03395,-1.62704 -13.13153,-3.58943 z"
         id="path4274" />
      <path
         sodipodi:type="arc"
         style="fill:#ffffff;fill-opacity:1;stroke:none"
         id="path4276"
         sodipodi:cx="392.00232"
         sodipodi:cy="891.84894"
         sodipodi:rx="1.3258252"
         sodipodi:ry="0.88388348"
         d="m 393.32814,891.84894 c 0,0.48815 -0.59359,0.88388 -1.32582,0.88388 -0.73223,0 -1.32583,-0.39573 -1.32583,-0.88388 0,-0.48816 0.5936,-0.88389 1.32583,-0.88389 0.73223,0 1.32582,0.39573 1.32582,0.88389 z"
         transform="translate(-1.767767,1.2374369)" />
      <path
         sodipodi:type="arc"
         style="fill:#ffffff;fill-opacity:1;stroke:none"
         id="path4278"
         sodipodi:cx="390.32294"
         sodipodi:cy="897.15222"
         sodipodi:rx="2.4748738"
         sodipodi:ry="2.2980971"
         d="m 392.79781,897.15222 c 0,1.26921 -1.10804,2.2981 -2.47487,2.2981 -1.36684,0 -2.47488,-1.02889 -2.47488,-2.2981 0,-1.2692 1.10804,-2.2981 2.47488,-2.2981 1.36683,0 2.47487,1.0289 2.47487,2.2981 z"
         transform="translate(4.4194174,-0.88388347)" />
      <path
         sodipodi:type="arc"
         style="fill:#ff8080;fill-opacity:1;stroke:none"
         id="path4280"
         sodipodi:cx="425.05957"
         sodipodi:cy="909.96857"
         sodipodi:rx="2.6516504"
         sodipodi:ry="3.8890872"
         d="m 427.71122,909.96857 c 0,2.14788 -1.18718,3.88908 -2.65165,3.88908 -1.46447,0 -2.65165,-1.7412 -2.65165,-3.88908 0,-2.14789 1.18718,-3.88909 2.65165,-3.88909 1.46447,0 2.65165,1.7412 2.65165,3.88909 z"
         transform="matrix(1.3666667,0,0,1.3409091,-156.29712,-310.92368)" />
      <path
         style="fill:#ffb380;fill-opacity:1;stroke:none"
         d="m 426.43608,905.9772 c -0.006,-0.006 -0.0102,-0.0353 -0.0103,-0.0661 -8e-4,-0.2437 -0.23337,-0.65985 -0.53774,-0.96224 -0.26189,-0.26019 -0.50241,-0.40816 -0.8508,-0.52344 -0.26853,-0.0888 -0.44309,-0.11469 -0.77533,-0.11477 -0.40528,-9e-5 -0.7668,0.0682 -1.20749,0.22818 -0.10552,0.0383 -0.19431,0.0654 -0.1973,0.0602 -0.0362,-0.0632 -0.3375,-0.89828 -0.32751,-0.90778 0.0222,-0.0211 0.39527,-0.15163 0.57805,-0.20221 0.50473,-0.13967 0.98916,-0.19352 1.42768,-0.15872 0.90008,0.0714 1.68284,0.46497 2.23846,1.12543 0.34917,0.41505 0.58813,0.91973 0.62985,1.33024 l 0.0104,0.10269 -0.45109,0.0424 c -0.2481,0.0233 -0.46587,0.0455 -0.48393,0.0494 -0.0181,0.004 -0.0374,0.002 -0.043,-0.003 l 0,0 z"
         id="path4282" />
      <path
         style="fill:#ffb380;fill-opacity:1;stroke:none"
         d="m 424.22233,905.1924 c -1.20437,-0.43177 -2.19282,-0.78814 -2.19656,-0.79191 -0.011,-0.0111 0.31818,-0.94375 0.3331,-0.94379 0.015,-4e-5 4.31491,1.53622 4.38035,1.56503 l 0.0412,0.0181 -0.12448,0.35361 c -0.0684,0.19449 -0.14312,0.40605 -0.16591,0.47014 -0.0228,0.0641 -0.0496,0.11593 -0.0597,0.11519 -0.0102,-7.4e-4 -1.00364,-0.35462 -2.20801,-0.78639 l 0,0 z"
         id="path4284" />
      <path
         style="fill:#ffb380;fill-opacity:1;stroke:none"
         d="m 423.05611,905.15373 c -0.60303,-0.0267 -1.10068,-0.0529 -1.10589,-0.0582 -0.005,-0.005 -9.2e-4,-0.22219 0.01,-0.4821 0.0157,-0.39024 0.023,-0.47411 0.0421,-0.48143 0.0174,-0.007 2.52202,0.0891 2.52654,0.0966 4.9e-4,8.2e-4 -0.008,0.19134 -0.0184,0.42337 -0.0106,0.23203 -0.0198,0.45176 -0.0204,0.48828 l -0.001,0.0664 -0.16797,-0.002 c -0.0924,-10e-4 -0.66135,-0.024 -1.26438,-0.0508 z"
         id="path4286" />
      <path
         style="fill:#ffb380;fill-opacity:1;stroke:none"
         d="m 421.75762,902.81909 c -1.69674,-0.95504 -3.08498,-1.74594 -3.08498,-1.75754 0,-0.0116 0.10195,-0.20289 0.22656,-0.42509 l 0.22657,-0.404 3.08593,1.73596 c 1.69727,0.95478 3.08594,1.74472 3.08594,1.75542 0,0.0107 -0.10238,0.20222 -0.22752,0.42558 l -0.22753,0.40612 -3.08497,-1.73645 0,0 z"
         id="path4288" />
    </g>
    <path
       transform="translate(154.5,-152.5)"
       d="m 363.5,993.61218 a 27.25,13.75 0 1 1 -54.5,0 27.25,13.75 0 1 1 54.5,0 z"
       sodipodi:ry="13.75"
       sodipodi:rx="27.25"
       sodipodi:cy="993.61218"
       sodipodi:cx="336.25"
       id="path4290"
       style="fill:#ffb380;fill-opacity:1;stroke:#ffffff;stroke-width:1;stroke-linecap:round;stroke-linejoin:round;stroke-miterlimit:4;stroke-opacity:1;stroke-dasharray:none"
       sodipodi:type="arc" />
    <path
       sodipodi:type="arc"
       style="fill:#ffb380;fill-opacity:1;stroke:#ffffff;stroke-width:1;stroke-linecap:round;stroke-linejoin:round;stroke-miterlimit:4;stroke-opacity:1;stroke-dasharray:none"
       id="path4292"
       sodipodi:cx="336.25"
       sodipodi:cy="993.61218"
       sodipodi:rx="27.25"
       sodipodi:ry="13.75"
       d="m 363.5,993.61218 a 27.25,13.75 0 1 1 -54.5,0 27.25,13.75 0 1 1 54.5,0 z"
       transform="translate(260,-152.5)" />
    <path
       style="fill:#ffb380;fill-opacity:1;stroke:none"
       d="m 119.8678,916.18269 c -0.64919,-0.31516 -1.34085,-0.98385 -1.53702,-1.48598 -0.19616,-0.50212 -0.76613,-10.12673 -1.26658,-21.38802 -0.90019,-20.25628 -0.90266,-20.48841 -0.23075,-21.72276 1.12673,-2.06988 3.79822,-2.2184 5.23712,-0.29115 0.66963,0.89689 0.76879,2.11593 1.50831,18.54252 1.05077,23.34028 1.0523,24.54606 0.0325,25.65945 -1.05841,1.15559 -2.30552,1.3841 -3.74361,0.68594 l 0,0 z"
       id="path4296" />
    <path
       id="path4298"
       d="m 433.6648,759.4043 c -0.71965,-0.0536 -1.60913,-0.42013 -1.97663,-0.81455 -0.36748,-0.39441 -4.44605,-9.13073 -9.06347,-19.41405 -8.3056,-18.49714 -8.39349,-18.712 -8.22404,-20.10712 0.28414,-2.33949 2.71264,-3.46257 4.76077,-2.20166 0.95314,0.5868 1.4948,1.68338 8.23898,16.67991 9.5827,21.30832 10.02871,22.42858 9.49129,23.83954 -0.55775,1.46442 -1.63274,2.13666 -3.22692,2.01794 l 0,0 z"
       style="fill:#ffb380;fill-opacity:1;stroke:none" />
  </g>
</svg>
